<?xml version="1.0" encoding="utf-8"?>
<!DOCTYPE svg PUBLIC "-//W3C//DTD SVG 20010904//EN" "http://www.w3.org/TR/2001/REC-SVG-20010904/DTD/svg10.dtd">
<svg version="1.0" xmlns="http://www.w3.org/2000/svg" width="594px" height="429px" viewBox="0 0 594 429" preserveAspectRatio="xMidYMid meet">
 <g fill="#ffffff">
  <path d="M72 357 l0 -4 4 0 4 0 0 4 0 4 -4 0 -4 0 0 -4z"/>
  <path d="M108 293.5 c0 -2.8 0.4 -3.5 2 -3.5 1.6 0 2 0.7 2 3.5 0 2.8 -0.4 3.5 -2 3.5 -1.6 0 -2 -0.7 -2 -3.5z"/>
  <path d="M399.7 201.3 c-0.4 -0.3 -0.7 -2.1 -0.7 -4 0 -3.3 0.1 -3.3 4.5 -3.3 l4.5 0 0 4 c0 4 0 4 -3.8 4 -2.1 0 -4.2 -0.3 -4.5 -0.7z"/>
  <path d="M293.5 155.5 l-2.8 -5.5 -9.7 0 -9.6 0 -2.1 5 -2.1 5 -6.6 0 -6.6 0 0 -2.9 c0 -1.8 4.3 -11.6 10.6 -24 l10.7 -21.1 6.3 0 6.3 0 4.2 8.8 c2.3 4.8 6.8 14.1 10 20.8 3.9 8 5.9 13.3 5.9 15.7 l0 3.7 -5.8 0 -5.8 0 -2.9 -5.5z m-8.5 -17.3 c0 -0.5 -0.8 -2.5 -1.8 -4.5 l-1.8 -3.7 -2.2 4.5 -2.2 4.5 4 0 c2.2 0 4 -0.4 4 -0.8z"/>
  <path d="M478 95.5 c0 -2.8 0.4 -3.5 2 -3.5 1.3 0 2 -0.7 2 -2 0 -1.3 -0.7 -2 -2 -2 -1.6 0 -2 -0.7 -2 -3.5 l0 -3.5 5.5 0 c3.6 0 5.5 0.4 5.5 1.2 0 0.9 0.3 0.9 1.2 0 0.7 -0.7 3.4 -1.2 6 -1.2 4.8 0 4.8 0 4.8 3.3 0 1.8 0.5 3.8 1.1 4.4 0.5 0.5 0.9 3 0.7 5.4 l-0.3 4.4 -12.2 0.2 -12.3 0.3 0 -3.5z"/>
 </g>
 <g fill="#e6e6e6">
  <path d="M419 356 c0 -14.7 0.3 -18 1.4 -18 0.8 0 1.6 1 2 2.3 0.7 2.9 4.5 4.7 11.1 5.4 17.2 1.6 25.5 -19.7 11 -28.2 -7.1 -4.2 -20.9 -2.6 -22.2 2.5 -0.3 1.1 -1.2 2 -1.9 2 -1.1 0 -1.4 -3.3 -1.4 -18 0 -15.3 0.2 -18 1.5 -18 0.8 0 1.5 0.7 1.5 1.5 0 0.8 0.7 1.5 1.4 1.5 0.8 0 2.7 1.6 4.2 3.5 2.5 3.3 3 3.5 8.5 3.5 3.3 0 5.9 -0.3 5.9 -0.7 0 -0.5 1.1 -2 2.4 -3.5 l2.4 -2.7 6.9 2.6 c3.7 1.4 6.9 2.7 7 2.8 0.1 0 -0.2 1.9 -0.8 4 -1.1 3.7 -1 3.9 2.8 7.2 3.3 2.9 4.4 3.3 8.7 3.1 l4.9 -0.3 2.8 6.1 2.7 6.1 -3.9 2.2 c-3.8 2.2 -3.9 2.4 -3.9 7.7 0 3 0.3 5.4 0.8 5.4 0.4 0 2 1 3.5 2.3 l2.8 2.2 -2.6 5.9 -2.6 5.9 -4.5 -0.7 c-4.1 -0.5 -4.9 -0.3 -8.5 2.6 -3.8 3 -4 3.6 -3.7 7.7 l0.3 4.4 -6.8 2.3 -6.9 2.3 -2.3 -2.7 c-1.4 -1.5 -2.5 -3 -2.5 -3.4 0 -0.5 -2.6 -0.8 -5.7 -0.8 -5.4 0 -6 0.2 -9.4 4 -2.5 2.7 -3.3 4.2 -2.5 5 0.7 0.7 0.2 1 -1.7 1 l-2.7 0 0 -18z"/>
  <path d="M161 299 l0 -69 128.5 0 128.5 0 0 69 0 69 -6.5 0 -6.5 0 -0.2 -62.2 -0.3 -62.3 -115.2 -0.3 -115.3 -0.2 0 62.5 0 62.5 -6.5 0 -6.5 0 0 -69z"/>
  <path d="M71 357 l0 -4 5 0 5 0 0 4 0 4 -5 0 -5 0 0 -4z"/>
  <path d="M40.3 211.3 c-3.5 -1.9 -6.3 -4.1 -6.3 -4.8 0 -0.7 0.6 -2.8 1.4 -4.6 1.3 -3.1 1.2 -3.5 -1.7 -7.3 -1.8 -2.3 -3.3 -4.3 -3.5 -4.6 -0.2 -0.3 -2.9 -0.7 -6 -1 l-5.6 -0.5 -1.7 -6.8 -1.7 -6.9 4.7 -1.9 c4.5 -1.9 4.8 -2.2 5.9 -7.7 l1.2 -5.7 -3.7 -3.1 -3.7 -3.1 3.9 -5.8 c2.2 -3.2 4.5 -6 5.1 -6.2 0.7 -0.2 3.1 0.1 5.5 0.7 4 1.1 4.7 1 9.6 -1.6 5.1 -2.8 5.2 -3 5.5 -7.8 l0.3 -5 8.1 -1.6 8.2 -1.7 2 4.2 c2 4 2.3 4.2 8.4 5.2 6.3 1 6.3 1 10.2 -2.2 l3.9 -3.2 7.2 4 7.3 4.1 -1.9 4.4 -1.9 4.3 3.7 4.5 c3.5 4.2 4 4.4 9 4.4 5.8 0 5.2 -0.7 7.9 10.3 0.3 1.5 1 2.7 1.5 2.7 0.5 0 0.9 0.5 0.9 1 0 0.6 -7.2 1 -19.5 1 -12.3 0 -19.5 -0.4 -19.5 -1 0 -0.5 0.5 -1 1 -1 2.1 0 0.8 -2.5 -3.4 -6.6 -11.1 -10.6 -29.8 -6.3 -33.6 7.7 -1.9 6.9 1.7 15.1 8 18.4 3.7 1.9 5 1.9 5 0 0 -0.8 0.7 -1.5 1.5 -1.5 1.3 0 1.5 2.2 1.5 14 0 11.8 -0.2 14 -1.5 14 -0.8 0 -1.5 -0.6 -1.5 -1.4 0 -1.8 -5.3 -3 -7.7 -1.8 -1 0.6 -2.7 2 -3.7 3.1 -2.5 2.7 -2.9 2.6 -10.3 -1.6z"/>
  <path d="M401.7 200.3 c-0.4 -0.3 -0.7 -2.2 -0.7 -4 0 -3.3 0.1 -3.4 3.8 -3.1 3.5 0.3 3.7 0.5 4 4.1 0.3 3.6 0.2 3.7 -3.1 3.7 -1.8 0 -3.7 -0.3 -4 -0.7z m3.1 -2.4 c-0.2 -0.6 -0.8 -1 -1.3 -1 -0.5 0 -1.1 0.4 -1.3 1 -0.2 0.6 0.4 1.1 1.3 1.1 0.9 0 1.5 -0.5 1.3 -1.1z"/>
  <path d="M267.1 150 c1.1 -3.1 4.9 -4.3 4.9 -1.6 0 2.9 -1.3 4.6 -3.6 4.6 -2.1 0 -2.2 -0.2 -1.3 -3z"/>
  <path d="M272.2 140 c0.7 -1.1 1.6 -2 2 -2 0.5 0 0.8 0.9 0.8 2 0 1.3 -0.7 2 -2 2 -1.8 0 -1.9 -0.2 -0.8 -2z"/>
  <path d="M267 131 c0 -1.6 1 -5 2.2 -7.5 1.7 -3.4 2.8 -4.5 4.5 -4.5 2 0 2.2 0.3 1.2 2.7 -1.7 4.6 -6.2 12.3 -7.1 12.3 -0.4 0 -0.8 -1.3 -0.8 -3z"/>
  <path d="M399 68.6 l0 -45.4 11.9 -11.1 11.9 -11.1 38.6 0 38.6 0 0 38.5 c0 32.1 0.2 38.5 1.4 38.5 1 0 1.4 2 1.5 8.5 0.1 6.7 -0.1 8.5 -1.3 8.5 -0.7 0 -1.6 -0.9 -1.9 -2 -0.3 -1.1 -1.9 -2.5 -3.7 -3.1 -3.7 -1.3 -3.7 -4 0 -5 2.1 -0.6 2.2 -0.7 0.5 -0.8 -2.4 -0.1 -4.5 1.6 -4.5 3.7 0 0.7 1.6 2 3.5 2.8 4 1.6 5 5 1.3 4 -1.3 -0.3 -3.1 -0.6 -4 -0.6 -1.2 0 -1.8 -0.8 -1.8 -2.5 0 -1.4 -0.4 -2.5 -1 -2.5 -0.5 0 -1 -1.5 -1 -3.4 0 -3.2 0.3 -3.5 3.3 -3.9 1.7 -0.2 -2.5 -0.5 -9.5 -0.5 l-12.8 -0.2 0 9 0 9 3.5 0 c3.4 0 3.5 -0.1 3.5 -4.1 l0 -4 3.8 0.3 c3.1 0.3 3.7 0.7 3.6 2.6 0 1.2 0.1 2.2 0.3 2.2 0.2 0 0.8 -1 1.3 -2.2 0.8 -2 0.9 -1.8 0.9 1.5 l0.1 3.7 8 0 c6.4 0 8 0.3 8 1.5 0 0.8 -0.7 1.5 -1.5 1.5 -1.2 0 -1.5 1.3 -1.5 6 l0 6 -50.5 0 -50.5 0 0 -45.4z"/>
 </g>
 <g fill="#abccff">
  <path d="M90.2 361 c-3.2 -7 -4.1 -12 -2.2 -12 0.6 0 1 0.5 1 1 0 0.6 0.6 1 1.4 1 0.7 0 3.1 -3.8 5.2 -8.5 4.1 -8.9 5 -9.6 9.9 -7.3 2.3 1.1 2.5 1.6 2.5 8.5 0 5.9 -0.3 7.3 -1.6 7.3 -0.8 0 -1.2 -0.4 -0.9 -1 0.3 -0.5 0.3 -1 -0.2 -1 -0.4 0 -1.5 1.7 -2.4 3.8 -1.1 2.6 -2.7 4.4 -5.2 5.6 -5 2.3 -4.7 3.9 0.5 2 5 -1.7 6.8 -3.1 6.8 -5.3 0 -1.1 1.8 -2.3 5 -3.4 4.9 -1.7 5.1 -1.9 6.7 -7.7 l1.6 -6 4.2 0 c2.3 0 6.2 0.7 8.8 1.6 4.6 1.6 4.7 1.7 4.6 5.7 0 2.3 -1 6.9 -2.2 10.1 -1.7 4.6 -3 6.5 -5.6 8 -4.4 2.6 -15.5 4.5 -26.1 4.5 l-8.6 0.1 -3.2 -7z"/>
  <path d="M113.7 312.4 c-0.3 -0.3 -0.3 -1.3 0 -2.1 0.4 -0.9 -0.5 -2.4 -2.3 -3.8 -2.6 -2.1 -2.9 -2.9 -3.1 -9.1 -0.1 -3.8 -0.5 -7.9 -0.8 -9 -0.4 -1.9 0.1 -2.3 4 -2.8 7.5 -1.2 16.4 1.6 16.5 5.2 0 0.7 1.3 1.2 3.1 1.2 l3 0 -0.3 5.3 c-0.3 4.9 -0.5 5.3 -3.5 6.2 -3.1 0.8 -3.3 1.2 -3.3 5.2 l0 4.3 -6.3 0 c-3.5 0 -6.6 -0.3 -7 -0.6z"/>
  <path d="M294.4 157 c-0.4 -1.6 -1 -3 -1.5 -3 -0.5 0 -0.9 -1.6 -0.9 -3.5 0 -1.9 0.4 -3.5 0.8 -3.5 0.5 0 2.2 2.5 3.7 5.5 1.6 3 3.5 5.5 4.2 5.5 0.7 0 1.3 0.5 1.3 1 0 0.6 -1.6 1 -3.5 1 -3.1 0 -3.6 -0.3 -4.1 -3z"/>
  <path d="M302.2 151.2 c-1.1 -2.1 -2.6 -5 -3.1 -6.5 -1 -2.4 -0.8 -2.7 1.2 -2.7 2.7 0 5.7 5.3 5.7 10 0 4 -1.2 3.8 -3.8 -0.8z"/>
  <path d="M258 148.8 c0 -4.3 1.2 -6.1 3.9 -5.6 l2.1 0.3 -2.1 4.3 c-2.5 5 -3.9 5.4 -3.9 1z"/>
  <path d="M286.7 141.3 c-0.4 -0.3 -0.7 -1.5 -0.7 -2.5 0 -1 -0.4 -1.8 -1 -1.8 -0.5 0 -1 -0.7 -1 -1.6 0 -0.8 -0.7 -2.2 -1.5 -3 -1.6 -1.7 -2.1 -8.4 -0.5 -8.4 0.9 0 9 15.4 9 17.2 0 1 -3.4 1.1 -4.3 0.1z"/>
  <path d="M289.5 124.8 c-4.2 -8.9 -4.3 -9.3 -2.3 -9.6 2.5 -0.4 3.8 1.3 3.8 5.1 0 1.6 0.5 2.7 1.3 2.7 1.8 0 3.7 4.3 3.7 8 0 5.1 -1.8 3.3 -6.5 -6.2z"/>
  <path d="M478 96.5 c0 -2.8 0.5 -3.8 2.5 -4.7 1.4 -0.6 2.5 -1.5 2.5 -2 0 -0.4 -1.1 -0.8 -2.5 -0.8 -2.2 0 -2.5 -0.4 -2.5 -3.4 0 -3.1 0.3 -3.4 3.8 -4 2 -0.3 7.7 -0.6 12.6 -0.6 l8.8 0 -0.4 4 c-0.2 2.2 0 4 0.4 4 1.5 0 0.8 7.8 -0.8 9.4 -1.9 2 -12.4 2.3 -12.4 0.4 0 -0.9 -0.3 -0.9 -1.2 0 -0.7 0.7 -3.4 1.2 -6 1.2 l-4.8 0 0 -3.5z m6.8 -0.7 c0.7 -0.7 1.2 -3.6 1.2 -6.5 0 -5.1 -0.1 -5.3 -2.7 -5.2 -2.4 0.2 -2.5 0.2 -0.5 0.6 1.9 0.4 2.2 1.1 2.2 5.3 0 4.9 -1.6 7 -3.9 4.7 -0.8 -0.8 -1.1 -0.8 -1.1 0 0 1 1.4 2 3.1 2.2 0.3 0.1 1 -0.4 1.7 -1.1z m15.2 -2.8 c0 -1.2 -1.2 -2.2 -3.6 -3 -4.6 -1.6 -4.4 -4.6 0.4 -4.4 1.7 0.1 2.9 -0.2 2.6 -0.7 -0.3 -0.5 -1.4 -0.9 -2.4 -0.9 -6.5 0 -6.9 5.9 -0.5 7.2 1.3 0.2 2 1.1 1.9 2.5 0 1.2 0.3 2 0.8 1.7 0.4 -0.3 0.8 -1.4 0.8 -2.4z"/>
 </g>
 <g fill="#6ea3fe">
  <path d="M113.5 311.3 c0.9 -3.6 0.7 -3.5 3.8 -2 4.1 1.9 3.5 4.7 -0.9 4.7 -3.4 0 -3.6 -0.1 -2.9 -2.7z"/>
  <path d="M110.7 289.2 c-1.5 -0.2 -3.2 -1.2 -3.7 -2.3 -1.2 -2.2 -0.8 -2.3 8.9 -1.3 4.7 0.5 6.1 1 6.1 2.3 0 1.7 -4.1 2.3 -5.6 0.9 -0.4 -0.4 -1.2 -0.4 -1.8 0 -0.6 0.4 -2.3 0.6 -3.9 0.4z"/>
  <path d="M355 182.5 c0 -1.9 0.5 -3.5 1 -3.5 0.6 0 1 -1.8 1 -4 l0 -4 7.5 0 7.5 0 0 4 0 4 -4 0 c-3.9 0 -4 0.1 -4 3.5 0 3.5 0 3.5 -4.5 3.5 -4.5 0 -4.5 0 -4.5 -3.5z"/>
 </g>
 <g fill="#7792b8">
  <path d="M87 352.5 c0 -4.3 1 -4.4 3.3 -0.6 2.2 3.8 2.2 4.1 -0.8 4.1 -2.2 0 -2.5 -0.4 -2.5 -3.5z"/>
  <path d="M361.2 207 c-5.7 -1.5 -11.1 -3.5 -12 -4.3 -2.5 -2.6 -5.2 -10.8 -5.2 -15.9 0 -5.7 1.4 -6.8 10.1 -7.5 6 -0.6 8.9 0.7 8.9 4.1 0 0.8 0.5 1.8 1 2.1 0.6 0.3 1 1.5 1 2.6 0 2.2 3.1 3.7 9.6 4.6 3.4 0.4 4.4 1 4.6 2.7 0.3 2.2 5.1 5.2 5.6 3.6 0.2 -0.5 -0.5 -2.1 -1.7 -3.5 -1.1 -1.4 -2.3 -3.9 -2.6 -5.5 -0.7 -3.3 -2.5 -5 -2.5 -2.5 0 0.9 -0.4 1.3 -1 1 -0.5 -0.3 -1 -2.6 -1 -5.1 0 -3.9 0.3 -4.6 2.6 -5.4 3.2 -1.3 10.1 -1.3 10.8 -0.1 0.4 0.5 0.1 1.1 -0.5 1.3 -1.5 0.5 2 7.8 3.8 7.8 0.7 0 1.3 0.7 1.3 1.5 0 0.8 -0.4 1.5 -0.8 1.5 -0.4 0 -1.6 2.3 -2.6 5 -1 2.8 -2.1 5 -2.6 5 -0.4 0 -1 1.6 -1.3 3.6 -0.3 2 -1.1 4.2 -1.8 5 -1.8 2.2 -12 1.5 -23.7 -1.6z"/>
  <path d="M353.6 157.8 c-2.1 -3 -2 -4.5 0.4 -5.1 1.7 -0.4 2 -1.4 2 -7.1 0 -4.2 -0.5 -7.5 -1.5 -8.9 -1.2 -1.9 -1.3 -2.8 -0.2 -5 0.6 -1.5 1.5 -2.7 2 -2.7 0.4 0 0.7 -1 0.7 -2.3 0 -4.3 10.6 -6.9 18.6 -4.6 4.5 1.4 6.1 4.3 2.9 5.5 -1.1 0.5 -1.5 2.4 -1.5 8 0 6.1 -0.4 7.8 -2 9.4 -1.1 1.1 -2.7 2 -3.5 2 -1 0 -1.5 1 -1.5 3 0 1.7 0.5 3 1 3 2.2 0 2.1 3.1 -0.1 5 -1.9 1.5 -3.9 1.9 -9.1 2 -5.8 0 -6.9 -0.3 -8.2 -2.2z"/>
 </g>
 <g fill="#2a79ff">
  <path d="M92 380.3 c0 -3.2 0.3 -8.1 0.6 -11 l0.7 -5.2 4.9 0.6 c6.8 0.8 21.8 -1.5 26.5 -4.1 3.1 -1.8 4.2 -3.3 6 -8.1 1.2 -3.3 2.2 -6.5 2.2 -7.2 0.1 -1 -7.8 -4.3 -10.4 -4.3 -0.7 0 -1.9 2.6 -2.8 5.9 -1 3.6 -2.3 6.1 -3.4 6.6 -1 0.4 -4.1 1.5 -6.9 2.5 l-5 1.8 0.5 -4.2 c0.8 -5.4 -0.1 -15.1 -1.4 -15.3 -0.5 -0.1 -2 -0.5 -3.2 -1 l-2.2 -0.8 3.5 -8 c2.2 -5.1 4.9 -9.4 7.4 -11.8 2.2 -2.1 4 -4.1 4 -4.6 0 -1.1 5 -2.1 10.1 -2.1 3 0 3.9 0.4 3.9 1.8 0.1 1.1 2 2.6 5.3 4.2 4.4 2.1 5.4 3.1 6.7 6.8 1.4 4 1.3 5.2 -1.1 17 l-2.6 12.7 3.9 9.6 c4.9 12.3 4.9 16 0.4 20.5 l-3.4 3.4 -22.1 0 -22.1 0 0 -5.7z"/>
  <path d="M25.4 376.9 c-1.1 -1.8 1.8 -3.9 5.2 -3.9 3.3 0 5.7 1.7 3.2 2.4 -0.7 0.1 -2.8 0.8 -4.5 1.4 -2.1 0.6 -3.5 0.7 -3.9 0.1z"/>
  <path d="M14.8 367 c-2.6 -1.6 -6.2 -8 -5.1 -9.1 1.5 -1.5 7.8 1.4 9.7 4.4 2.8 4.2 -0.1 7.3 -4.6 4.7z"/>
  <path d="M52.9 323.7 c-2.4 -1.2 -5.4 -2.9 -6.6 -3.7 -1.8 -1.2 -2.5 -1.1 -5 0.4 l-2.8 1.8 2.2 -2.3 2.3 -2.3 -2.3 -2.4 -2.2 -2.4 3.3 1.9 3.3 1.8 4.3 -5 c3.7 -4.2 4.1 -5.1 2.8 -5.7 -1.4 -0.5 -1.3 -0.7 0.5 -0.7 2.4 -0.1 5.3 -3.5 10.2 -12.3 2.8 -4.9 3 -5.8 1.6 -6.6 -1 -0.5 -1.8 -2.8 -2.2 -6.5 -0.6 -5.6 -0.6 -5.7 2.1 -5.7 2.4 0 2.6 -0.3 2.6 -4.3 0 -3.2 -0.6 -4.9 -2.2 -6.5 -3.6 -3.3 -5 -5.2 -3.8 -5.2 0.5 0 1 -0.9 1 -2 0 -3.4 6 -2.7 10.1 1.2 3.3 3.2 3.4 3.5 3.4 11.5 l0 8.2 3.8 0.6 c2 0.4 3.7 1.1 3.7 1.6 0 0.5 1.1 1.1 2.5 1.5 1.4 0.3 2.5 1 2.5 1.5 0 0.5 0.7 0.9 1.5 0.9 0.8 0 1.5 0.7 1.5 1.5 0 0.8 -0.7 1.5 -1.6 1.5 -1.2 0 -1.4 0.5 -0.8 1.8 1.2 2.7 0.7 6.3 -1 8.1 -1.6 1.5 -1.6 1.4 -0.1 -1.6 1.2 -2.4 1.3 -3.7 0.6 -5.2 -1.3 -2.4 -3 -2.9 -9.6 -3.2 -10.3 -0.4 -9.8 -0.6 -14.8 8 -2.6 4.4 -5.1 8.2 -5.7 8.6 -1.7 1.1 -1.1 2.8 0.8 2 1.1 -0.4 1.3 -0.3 0.7 0.3 -0.5 0.6 -1.7 1.2 -2.5 1.4 -0.8 0.1 -3.9 2.8 -6.8 5.9 l-5.3 5.7 3.3 2.3 c1.8 1.3 5.5 3.1 8.3 4.1 2.7 1 4.1 1.7 2.9 1.8 -1.1 0 -4 -1 -6.5 -2.3z"/>
  <path d="M17.5 321 c-0.4 -1.7 -0.5 -3.4 -0.2 -3.6 0.2 -0.3 0.7 1 1.1 2.7 0.8 4.2 0 5 -0.9 0.9z"/>
  <path d="M33.5 308 c-1.6 -1.6 -3.8 -3.1 -4.9 -3.1 -1.7 -0.1 -1.8 -0.2 -0.3 -0.6 1.6 -0.4 1.6 -0.7 -0.4 -3.4 -1.1 -1.6 -1.7 -2.9 -1.2 -2.9 0.4 0 1.7 1.4 2.8 3 1.1 1.7 3.4 3.4 5 3.9 1.8 0.6 2.3 1 1.1 1 -1.7 0.1 -1.7 0.2 -0.2 2.6 2.2 3.3 1.6 3.2 -1.9 -0.5z"/>
  <path d="M64.5 304.1 c2.2 -1.1 6.2 -1.4 5.3 -0.5 -0.4 0.3 -2.1 0.7 -4 1 -2.6 0.3 -2.9 0.2 -1.3 -0.5z"/>
  <path d="M18 303 c-2 -0.6 -2.1 -0.8 -0.5 -0.8 1.1 0 2.9 0.3 4 0.8 2.5 1.1 -0.1 1.1 -3.5 0z"/>
  <path d="M128 302 c0 -1 0.7 -2 1.5 -2.4 0.8 -0.3 1.5 -1.5 1.5 -2.6 0 -1.6 -0.7 -2 -3 -2 -1.7 0 -3 -0.5 -3 -1.3 0 -2.5 -9.3 -6.6 -10.6 -4.6 -0.3 0.5 -1.4 0.4 -2.5 -0.1 -1.1 -0.6 -2.3 -0.9 -2.7 -0.6 -0.5 0.3 -1.7 -0.5 -2.7 -1.6 -2.2 -2.6 -1 -7.1 2 -7.7 1.1 -0.2 2.3 -0.8 2.6 -1.3 0.4 -0.6 2.7 -1.3 5.3 -1.5 2.6 -0.3 4.6 -1.1 4.6 -1.8 0 -2.3 4.6 -5.5 7.9 -5.5 5.6 0 7.1 1.4 7.1 7 0 2.7 0.5 5.2 1 5.5 1.6 1 1.2 4.5 -0.5 4.5 -3.1 0 -1.6 3.5 2.7 6.3 2.4 1.5 2.6 2.1 2.1 5.4 -0.7 4.2 -1.9 5.5 -4.5 4.7 -1 -0.3 -1.8 -0.1 -1.8 0.4 0 0.6 -1.6 1 -3.5 1 -2.7 0 -3.5 -0.4 -3.5 -1.8z"/>
  <path d="M79 300.6 c0 -0.3 1.4 -1.2 3 -2.1 1.7 -0.9 3 -1.3 3 -1.1 0 0.3 -1.3 1.2 -3 2.1 -1.6 0.9 -3 1.3 -3 1.1z"/>
  <path d="M38.5 296.5 c-1.4 -1.3 -2.5 -2.9 -2.5 -3.5 0 -1.6 4.7 -6 6.4 -6 2.7 0 6.5 2.3 7.1 4.2 0.9 2.8 -0.3 5.4 -3.1 6.6 -3.7 1.7 -5.2 1.5 -7.9 -1.3z"/>
  <path d="M438.4 282.7 c-7.2 -2.9 -11.4 -5.5 -11.4 -7.1 0 -0.3 4.1 -0.6 9 -0.6 5.3 0 9 0.4 9 1 0 0.6 -0.4 1 -1 1 -0.5 0 -1 1.1 -1 2.5 0 1.7 0.9 2.9 3 4 1.7 0.9 3 1.8 3 2 0 1 -2.7 0.3 -10.6 -2.8z"/>
  <path d="M40.6 271.8 c1 -1.4 2.7 -3.1 3.7 -3.7 1.5 -1 1.6 -0.9 0.6 0.6 -0.6 1 -2.3 2.7 -3.7 3.7 l-2.6 2 2 -2.6z"/>
  <path d="M15.1 269.5 c0 -1.1 0.4 -2.9 0.9 -4 l0.9 -2 0 2 c0 1.1 -0.4 2.9 -0.9 4 l-0.9 2 0 -2z"/>
  <path d="M339.6 211.9 c-0.3 -1.7 -0.6 -14 -0.6 -27.3 0.1 -22.2 0.2 -24.3 2 -26.4 4 -4.9 13.5 -6.8 15.8 -3.2 1.7 2.7 7.4 2.7 11.1 -0.1 2.6 -1.9 3 -1.9 6.3 -0.6 4.8 2 8.7 7.1 12.5 16.4 1.7 4.3 3 7.9 2.8 8.1 -0.1 0.2 -2.4 0.8 -5.1 1.5 -5.7 1.4 -6.6 3.6 -5.5 12.2 0.7 4.9 0.6 5.5 -0.8 4.9 -0.9 -0.3 -4.5 -1.2 -8 -2 -3.7 -0.8 -7.2 -2.2 -8.3 -3.4 -1.1 -1.2 -1.4 -2 -0.7 -2 0.7 0 0.5 -0.7 -0.5 -1.9 -1 -1.1 -1.5 -2.5 -1.1 -3 0.3 -0.6 0 -1.1 -0.7 -1.2 -0.7 0 -0.4 -0.4 0.7 -0.9 1.7 -0.7 1.6 -0.9 -1 -0.9 -4.5 -0.1 -10.5 1.8 -11.2 3.6 -0.7 1.8 2.3 11 4.5 13.5 1.5 1.8 5.3 3.3 11.2 4.3 5.7 1 6.4 1.2 9.8 2.5 5.4 2 3.3 4.9 -3.5 5 -1.3 0 -2.3 0.4 -2.3 0.9 0 0.5 -3.9 1.2 -8.7 1.6 -4.9 0.3 -10.9 0.8 -13.4 1.1 -4.5 0.5 -4.6 0.5 -5.3 -2.7z m29.4 -36.9 c0 -0.5 -2 -1 -4.5 -1 -2.5 0 -4.5 0.5 -4.5 1 0 0.6 2 1 4.5 1 2.5 0 4.5 -0.4 4.5 -1z"/>
  <path d="M294 175.5 l0 -6.5 -9 0 -9 0 0 -11 0 -11 8.8 0 8.8 0 2.7 5.5 c2.4 4.9 3 5.5 5.7 5.5 1.6 0 3 -0.4 3 -0.9 0 -0.4 -4.5 -10.1 -10 -21.5 l-10 -20.6 -3.4 0 c-2.2 0 -3.9 0.6 -4.6 1.8 -0.9 1.3 -1 0.2 -0.6 -4.7 0.3 -3.5 0.6 -9 0.6 -12.2 0 -4.9 0.3 -5.9 2 -6.4 2.6 -0.8 42.7 16.7 45.4 19.8 1.8 2.1 1.8 3.6 1.2 26.2 -0.6 20.8 -0.9 24.2 -2.4 25.7 -0.9 0.9 -7.1 4.4 -13.7 7.9 -6.6 3.4 -12.4 6.9 -12.8 7.6 -1.7 2.8 -2.7 1 -2.7 -5.2z"/>
  <path d="M259 159 c0 -1.5 0.7 -2 2.5 -2 1.3 0 2.9 -0.8 3.4 -1.7 0.8 -1.5 1 -1.1 1.1 2 0 3.6 -0.1 3.7 -3.5 3.7 -2.8 0 -3.5 -0.4 -3.5 -2z"/>
  <path d="M276 140.6 c0 -0.8 -0.7 -1.6 -1.5 -1.8 -1.3 -0.2 -0.8 -1.9 2.4 -8.5 2.2 -4.6 4.2 -8.3 4.5 -8.3 0.4 0 9.6 18.8 9.6 19.6 0 0.2 -3.4 0.4 -7.5 0.4 -5.8 0 -7.5 -0.3 -7.5 -1.4z"/>
  <path d="M467 90 l0 -12 22.5 0 22.5 0 0 12 0 12 -22.5 0 -22.5 0 0 -12z m19.1 4 c0.4 -1.4 0.7 -4.2 0.8 -6.2 0.1 -3.6 -0.1 -3.8 -2.9 -3.8 -1.6 0 -3 0.5 -3 1 0 0.6 0.9 1 2.1 1 1.8 0 2 0.5 1.7 4.3 -0.3 3.6 -0.6 4.2 -2.5 4.1 -2.3 -0.1 -2.9 0.7 -1.6 2 1.5 1.5 4.7 0 5.4 -2.4z m13.4 1.4 c2.2 -2.2 1.5 -3.6 -2.8 -5.7 -4.2 -2.1 -4 -3.7 0.4 -3.7 1.6 0 2.9 -0.4 2.9 -1 0 -1.8 -6.9 -1.1 -7.9 0.8 -1.2 2.3 0.4 5.2 2.8 5.2 1 0 2.4 0.7 3.1 1.5 1 1.2 0.9 1.6 -0.4 2.1 -0.9 0.3 -2.5 0.4 -3.6 0.1 -1.1 -0.3 -2 -0.2 -2 0.2 0 2.5 5.1 2.9 7.5 0.5z"/>
 </g>
 <g fill="#78746d">
  <path d="M394 355.5 c0 -3.3 0.2 -3.5 3.5 -3.5 3.3 0 3.5 0.2 3.5 3.5 0 3.3 -0.2 3.5 -3.5 3.5 -3.3 0 -3.5 -0.2 -3.5 -3.5z"/>
  <path d="M363 348.5 l0 -3.5 10.5 0 10.5 0 0 3.5 0 3.5 -10.5 0 -10.5 0 0 -3.5z"/>
  <path d="M386 340 l0 -6 3.5 0 3.5 0 0 6 0 6 -3.5 0 -3.5 0 0 -6z"/>
  <path d="M355 340.5 c0 -3.3 -0.2 -3.5 -3.5 -3.5 l-3.5 0 0 -7 0 -7 5 0 5 0 0 7 0 7 7 0 7 0 0 3.5 0 3.5 -8.5 0 -8.5 0 0 -3.5z"/>
  <path d="M316 330 l0 -7 -5.5 0 -5.5 0 0 -3.5 0 -3.5 6 0 6 0 0 3.5 c0 3.4 0.1 3.5 4 3.5 l4 0 0 7 0 7 -4.5 0 -4.5 0 0 -7z"/>
  <path d="M327 330 l0 -7 9.5 0 9.5 0 0 7 0 7 -9.5 0 -9.5 0 0 -7z"/>
  <path d="M394 330 l0 -7 3.5 0 3.5 0 0 7 0 7 -3.5 0 -3.5 0 0 -7z"/>
  <path d="M248 326.5 l0 -3.5 9.5 0 9.5 0 0 3.5 0 3.5 -9.5 0 -9.5 0 0 -3.5z"/>
  <path d="M275 326.5 l0 -3.5 10 0 10 0 0 3.5 0 3.5 -10 0 -10 0 0 -3.5z"/>
  <path d="M386 302.5 l0 -24.5 3.5 0 3.5 0 0 24.5 0 24.5 -3.5 0 -3.5 0 0 -24.5z"/>
  <path d="M394 304.5 l0 -10.5 3.5 0 3.5 0 0 5.3 c0 2.8 0.3 7.6 0.6 10.5 l0.7 5.2 -4.2 0 -4.1 0 0 -10.5z"/>
  <path d="M210 304.5 l0 -3.5 9.5 0 9.5 0 0 3.5 0 3.5 -9.5 0 -9.5 0 0 -3.5z"/>
  <path d="M237 304.5 l0 -3.5 10 0 10 0 0 3.5 0 3.5 -10 0 -10 0 0 -3.5z"/>
  <path d="M278 304.5 c0 -3.5 0 -3.5 4.5 -3.5 4.5 0 4.5 0 4.5 3.5 0 3.5 0 3.5 -4.5 3.5 -4.5 0 -4.5 0 -4.5 -3.5z"/>
  <path d="M289 304.5 l0 -3.5 9.5 0 9.5 0 0 3.5 0 3.5 -9.5 0 -9.5 0 0 -3.5z"/>
  <path d="M310 304.5 l0 -3.5 5 0 5 0 0 3.5 0 3.5 -5 0 -5 0 0 -3.5z"/>
  <path d="M316 279 l0 -7 -10 0 -10 0 0 -3.5 0 -3.5 15.1 0 15.2 0 -0.7 5.3 c-0.3 2.8 -0.6 7.6 -0.6 10.5 l0 5.2 -4.5 0 -4.5 0 0 -7z"/>
  <path d="M327 279 l0 -7 9.5 0 9.5 0 0 7 0 7 -9.5 0 -9.5 0 0 -7z"/>
  <path d="M348 279 l0 -7 4.5 0 4.5 0 0 7 0 7 -4.5 0 -4.5 0 0 -7z"/>
  <path d="M394 275.5 l0 -10.5 3.5 0 3.5 0 0 10.5 0 10.5 -3.5 0 -3.5 0 0 -10.5z"/>
  <path d="M248 275.5 l0 -3.5 10 0 10 0 0 3.5 0 3.5 -10 0 -10 0 0 -3.5z"/>
  <path d="M275 275.5 l0 -3.5 10 0 10 0 0 3.5 0 3.5 -10 0 -10 0 0 -3.5z"/>
  <path d="M386 264.5 l0 -6.5 3.5 0 3.5 0 0 6.5 0 6.5 -3.5 0 -3.5 0 0 -6.5z"/>
  <path d="M114 262.5 c0 -3.5 0 -3.5 4.5 -3.5 4.5 0 4.5 0 4.5 3.5 0 3.5 0 3.5 -4.5 3.5 -4.5 0 -4.5 0 -4.5 -3.5z"/>
  <path d="M125 262.5 l0 -3.5 10 0 10 0 0 3.5 0 3.5 -10 0 -10 0 0 -3.5z"/>
  <path d="M147 262.5 c0 -3.5 0 -3.5 4.5 -3.5 4.5 0 4.5 0 4.5 3.5 0 3.5 0 3.5 -4.5 3.5 -4.5 0 -4.5 0 -4.5 -3.5z"/>
  <path d="M366 260.5 l0 -3.5 7 0 7 0 0 3.5 0 3.5 -7 0 -7 0 0 -3.5z"/>
  <path d="M394 253.5 c0 -3.3 0.2 -3.5 3.5 -3.5 3.3 0 3.5 0.2 3.5 3.5 0 3.3 -0.2 3.5 -3.5 3.5 -3.3 0 -3.5 -0.2 -3.5 -3.5z"/>
  <path d="M137 247.5 l0 -3.5 6 0 6 0 0 3.5 0 3.5 -6 0 -6 0 0 -3.5z"/>
  <path d="M96 226.5 l0 -3.5 24 0 24 0 0 3.5 0 3.5 -24 0 -24 0 0 -3.5z"/>
  <path d="M275 206.5 l0 -22.5 3.5 0 3.5 0 0 22.5 0 22.5 -3.5 0 -3.5 0 0 -22.5z"/>
  <path d="M114 211.5 l0 -3.5 21 0 21 0 0 3.5 0 3.5 -21 0 -21 0 0 -3.5z"/>
  <path d="M182 211.5 l0 -3.5 11 0 11 0 0 -3.5 c0 -1.9 0.5 -3.5 1 -3.5 0.6 0 1 -1.6 1 -3.5 l0 -3.5 8.5 0 8.5 0 0 3.5 c0 2.8 0.4 3.5 2 3.5 1.6 0 2 -0.7 2 -3.5 l0 -3.5 8.5 0 8.5 0 0 3.5 c0 1.9 0.5 3.5 1 3.5 0.6 0 1 1.6 1 3.5 l0 3.5 8.5 0 8.5 0 0 3.5 0 3.5 -10 0 -10 0 0 -3.5 0 -3.5 -9.5 0 -9.5 0 0 3.5 0 3.5 -21 0 -21 0 0 -3.5z"/>
  <path d="M283 204.5 l0 -10.5 4.1 0 4.2 0 -0.7 5.3 c-0.3 2.8 -0.6 7.6 -0.6 10.5 l0 5.2 -3.5 0 -3.5 0 0 -10.5z"/>
  <path d="M399.6 200.8 c-0.3 -1.3 -0.6 -3.5 -0.6 -5 0 -2.5 0.3 -2.8 3.5 -2.8 1.9 0 3.5 0.5 3.5 1 0 0.6 0.7 1 1.5 1 2.1 0 2.1 6.6 -0.1 7.4 -3.6 1.4 -7.2 0.6 -7.8 -1.6z m5.5 -3.3 c-0.1 -1.5 -2.4 -1.2 -2.9 0.3 -0.3 0.9 0.2 1.3 1.2 1 1 -0.1 1.7 -0.7 1.7 -1.3z"/>
  <path d="M135 197.5 l0 -3.5 23.5 0 23.5 0 0 3.5 0 3.5 -23.5 0 -23.5 0 0 -3.5z"/>
  <path d="M189 189.5 l0 -3.5 9 0 9 0 0 3.5 0 3.5 -9 0 -9 0 0 -3.5z"/>
  <path d="M252 182.5 l0 -3.5 10.5 0 10.5 0 0 3.5 0 3.5 -10.5 0 -10.5 0 0 -3.5z"/>
  <path d="M283 179 l0 -7 3.5 0 3.5 0 0 7 0 7 -3.5 0 -3.5 0 0 -7z"/>
  <path d="M458.8 66.3 c-3 -3.4 -22 -32.3 -21.3 -32.3 0.6 0 8 10.6 16.4 23.3 6.9 10.4 8 12.6 4.9 9z"/>
  <path d="M424.4 61.8 l-2.9 -3.3 3.3 2.9 c1.7 1.7 3.2 3.1 3.2 3.3 0 0.8 -0.8 0.1 -3.6 -2.9z"/>
  <path d="M476 58.7 l6.4 -6.7 -6.4 -6.7 -6.5 -6.7 7.3 6.3 c3.9 3.5 7.2 6.6 7.2 7 0 0.8 -8.1 8.6 -12 11.6 -1.4 1.1 0.4 -1.1 4 -4.8z"/>
  <path d="M416.5 54.6 l-2.9 -2.3 6.3 -5.9 c3.5 -3.3 6.9 -6 7.5 -6.2 0.6 -0.2 -1.8 2.4 -5.4 5.7 l-6.5 6 2.4 2.5 c3 3.2 2.5 3.3 -1.4 0.2z"/>
 </g>
 <g fill="#215fca">
  <path d="M92 379.5 c0 -4.1 0.4 -5.5 1.4 -5.5 1.8 0 2.9 4.8 2 8.4 -0.3 1.4 -1.2 2.6 -2 2.6 -1 0 -1.4 -1.5 -1.4 -5.5z"/>
  <path d="M98.8 367.3 c-4.1 -1 -1.3 -2.3 5.1 -2.3 3.8 0 7.7 -0.3 8.7 -0.7 1.2 -0.4 1.5 -0.3 1 0.5 -0.5 0.9 0.5 1.2 3.5 1.2 7.5 0 3.7 0.7 -6.6 1.2 -5.5 0.3 -10.8 0.4 -11.7 0.1z"/>
  <path d="M23.4 365.9 c-2 -3.3 0.7 -13.2 3.5 -12.7 1.9 0.4 2.5 3.7 1.6 8.4 -0.6 3.6 -3.8 6.3 -5.1 4.3z"/>
  <path d="M127.8 359.3 c0.6 -0.2 1.2 -1.1 1.2 -1.9 0 -0.8 0.5 -1.4 1.1 -1.4 0.5 0 0.7 -0.5 0.3 -1.2 -0.4 -0.7 -0.3 -0.8 0.4 -0.4 1.4 0.8 -1.4 5.6 -3.2 5.5 -0.7 0 -0.6 -0.2 0.2 -0.6z"/>
  <path d="M131 352.2 c0 -0.5 0.3 -1.2 0.8 -1.6 0.4 -0.4 0.8 -1.2 0.8 -1.7 0.1 -0.5 0.3 -1.1 0.4 -1.4 0.1 -0.3 0.3 -1.1 0.4 -1.7 0 -0.7 0.9 -1.4 1.9 -1.6 1.7 -0.3 1.8 0.1 1.2 3 -0.4 1.8 -1.4 3.9 -2.3 4.6 -1.8 1.4 -3.2 1.6 -3.2 0.4z"/>
  <path d="M104.7 338.3 c-0.2 -0.5 0 -2.1 0.4 -3.8 0.7 -2.9 0.7 -2.9 0.8 0.8 0.1 3.5 -0.3 4.6 -1.2 3z"/>
  <path d="M19.6 325.1 c-1 -1.1 -1.6 -2.6 -1.3 -3.3 0.4 -1 0.6 -1 0.6 0.1 0.1 0.8 0.8 2.3 1.8 3.3 0.9 1 1.4 1.8 1.1 1.8 -0.3 0 -1.3 -0.9 -2.2 -1.9z"/>
  <path d="M36 323.7 c0 -0.2 1.5 -1.4 3.3 -2.7 2 -1.5 2.7 -1.7 1.8 -0.6 -1.3 1.6 -5.1 4.1 -5.1 3.3z"/>
  <path d="M17.2 317 c0 -1.9 0.2 -2.7 0.5 -1.7 0.2 0.9 0.2 2.5 0 3.5 -0.3 0.9 -0.5 0.1 -0.5 -1.8z"/>
  <path d="M37.5 311.8 l-5 -5.3 5.5 5 c3 2.8 5.7 5.1 5.9 5.3 0.2 0.1 0 0.2 -0.5 0.2 -0.5 0 -3.2 -2.4 -5.9 -5.2z"/>
  <path d="M49 312.2 c2.4 -2.8 4.6 -5 4.9 -4.7 0.3 0.3 -1.7 2.7 -4.4 5.3 l-4.8 4.7 4.3 -5.3z"/>
  <path d="M38.8 305.3 c2.8 -0.2 7.6 -0.2 10.5 0 2.8 0.2 0.5 0.3 -5.3 0.3 -5.8 0 -8.1 -0.1 -5.2 -0.3z"/>
  <path d="M58.1 304.9 c1.3 -0.8 8.8 -1.4 7.8 -0.5 -0.2 0.2 -2.4 0.6 -4.8 0.9 -2.9 0.4 -4 0.2 -3 -0.4z"/>
  <path d="M22 304 c-1.6 -0.6 -0.6 -0.7 2.9 -0.3 5.9 0.7 5.9 0.7 1.5 -5.2 -3.2 -4.4 -9.7 -17.5 -10.3 -21 -1.3 -7.5 -0.7 -12.4 1.9 -14.7 1.8 -1.7 2 -1.8 0.8 -0.3 -2.5 3.2 -3 6.1 -1.9 12.1 1.3 6.8 4.8 14.7 10.2 23 2.1 3.3 3.9 6.3 3.9 6.7 0 0.9 -5.9 0.7 -9 -0.3z"/>
  <path d="M67 304.1 c0 -0.3 2.6 -1.4 5.8 -2.2 3.1 -0.9 6.6 -1.9 7.7 -2.3 1.9 -0.7 1.9 -0.7 0.1 0.5 -2.6 1.6 -13.6 4.9 -13.6 4z"/>
  <path d="M61.1 295.8 c4.5 -7.5 4.8 -8.4 3.3 -9.5 -0.9 -0.7 -1.4 -1.9 -1.1 -2.8 0.4 -0.8 0.2 -1.5 -0.3 -1.5 -0.5 0 -0.9 -1.6 -0.8 -3.5 0.1 -2.7 0.6 -3.5 1.9 -3.5 1.2 0 2.1 -1 2.5 -2.7 0.3 -1.6 0.8 -3.4 1 -4.2 0.6 -1.9 -2.3 -6.1 -4.1 -6.1 -0.8 0 -1.5 -0.6 -1.5 -1.4 0 -0.8 -0.6 -1.7 -1.2 -1.9 -0.8 -0.4 -0.7 -0.6 0.4 -0.6 1.1 -0.1 1.5 -0.7 1.1 -2.1 -0.4 -1.6 0 -2 2 -2 1.3 0 4 0.7 5.9 1.5 2.9 1.1 3.7 2.2 4.8 5.9 0.7 2.5 1 6.9 0.8 9.7 -0.4 4.1 -0.2 5.2 1.1 5.6 0.9 0.3 2.5 0.9 3.6 1.3 1.1 0.5 3 1.2 4.3 1.5 1.2 0.4 2.2 1.1 2.2 1.6 0 0.5 0.7 0.9 1.5 0.9 0.8 0 1.5 0.9 1.5 2 0 1.2 -0.7 2 -1.7 2 -1.3 0 -1.4 0.3 -0.5 1.2 0.7 0.7 1.2 1.6 1.2 2 0 0.4 -0.9 -0.1 -2 -1.2 -1.1 -1.1 -2 -2.6 -2 -3.2 0 -1 -0.2 -1 -0.8 0 -1.2 1.8 -14.3 1.2 -16 -0.8 -0.8 -0.8 -1.1 -1 -0.8 -0.4 0.8 1.6 -1.6 7.2 -5.9 13.8 -5.5 8.7 -5.8 7.4 -0.4 -1.6z m10.3 -15.7 c0.3 -0.5 -0.1 -1.4 -0.9 -2.1 -1 -0.8 -1.5 -0.9 -1.5 -0.2 0 0.7 -0.7 0.9 -1.7 0.5 -1.5 -0.6 -1.6 -0.5 -0.3 1 1.7 1.8 3.6 2.2 4.4 0.8z"/>
  <path d="M13.5 301.5 c-3.9 -1.7 -2.1 -1.8 2.5 0 1.9 0.7 2.8 1.4 2 1.4 -0.8 0 -2.8 -0.6 -4.5 -1.4z"/>
  <path d="M3.9 296.1 c-1.6 -1.6 -2.9 -3.8 -2.8 -4.8 0 -1.3 0.3 -1.2 1 0.7 0.5 1.4 2.2 3.5 3.7 4.7 1.5 1.3 2.3 2.3 1.9 2.3 -0.5 0 -2.2 -1.3 -3.8 -2.9z"/>
  <path d="M105.8 286.2 c-1 -0.2 -1.8 -0.7 -1.8 -1.2 0 -2 1.3 -4 2.6 -4 0.8 0 1.4 -0.6 1.4 -1.4 0 -1.7 2.2 -2.6 6.1 -2.6 1.9 0 2.9 0.5 2.9 1.5 0 0.8 -0.7 1.5 -1.5 1.5 -0.8 0 -1.5 0.5 -1.5 1 0 0.6 -0.9 1 -2 1 -1.1 0 -2.5 1 -3.2 2.3 -0.8 1.4 -2 2.1 -3 1.9z"/>
  <path d="M122.7 279.3 c-1.4 -0.4 -1.6 -1.1 -1.1 -4.1 0.4 -2 0.9 -4 1.1 -4.4 0.5 -0.9 7.3 -1.1 7.3 -0.2 0 0.3 -1.4 1.7 -3.1 3.1 -2 1.7 -2.9 3.2 -2.6 4.5 0.3 1 0.4 1.7 0.4 1.7 -0.1 -0.1 -1 -0.3 -2 -0.6z"/>
  <path d="M428.2 277.4 c-1.8 -2 -1.5 -2.4 1.8 -2.4 1.9 0 3 0.5 3 1.4 0 1.9 -3.3 2.6 -4.8 1z"/>
  <path d="M22.3 260.3 c0.9 -0.2 2.5 -0.2 3.5 0 0.9 0.3 0.1 0.5 -1.8 0.5 -1.9 0 -2.7 -0.2 -1.7 -0.5z"/>
  <path d="M340 213.2 c0 -1.1 0.8 -1.8 2 -1.9 1.4 -0.1 2 0.4 2 1.8 0 1.2 -0.7 1.9 -2 1.9 -1.3 0 -2 -0.7 -2 -1.8z"/>
  <path d="M351 212.5 c0 -0.8 0.6 -1.5 1.3 -1.6 0.6 0 2.2 -0.2 3.5 -0.5 1.7 -0.3 2.2 0.1 2.2 1.6 0 1.6 -0.7 2 -3.5 2 -2.4 0 -3.5 -0.5 -3.5 -1.5z"/>
  <path d="M367 209 l-3.5 -0.7 3 -0.2 c1.7 -0.1 3.9 -0.6 5 -1 2.6 -1 5.5 -0.2 5.5 1.5 0 1.5 -3.9 1.7 -10 0.4z"/>
  <path d="M351.8 201.1 c-1.5 -1.4 -2.8 -3.3 -3 -4.1 -0.2 -0.8 -1 -2.2 -1.8 -3 -1.8 -1.8 -2.7 -8.6 -1.1 -7.5 0.6 0.3 0.9 1 0.6 1.5 -0.3 0.5 -0.1 1.1 0.5 1.5 0.6 0.4 0.8 1.1 0.5 1.6 -0.4 0.5 -0.2 0.9 0.4 0.9 0.6 0 1.3 1.6 1.7 3.5 0.5 2.8 1.4 3.8 5 5.6 5 2.3 5.4 2.9 2.2 2.8 -1.3 -0.1 -3.5 -1.3 -5 -2.8z"/>
  <path d="M238.5 168 c-0.3 -0.5 0.2 -1 1.1 -1 1.5 0 1.5 -0.3 -0.4 -2.3 -2.1 -2.3 -2.2 -3 -2.2 -27.3 0 -19.6 0.3 -25.4 1.4 -26.9 0.7 -1 10 -5.2 21.2 -9.6 l19.9 -7.7 0.3 9 0.3 9 -11.5 22.8 -11.6 22.8 3 0.4 c3.4 0.5 3.8 0.1 6.9 -5.9 2.1 -4.2 2.3 -4.3 7.1 -4.3 l5 0 0 9.5 c0 7.8 0.3 9.5 1.5 9.5 0.8 0 1.5 0.7 1.5 1.5 0 1.3 -3 1.5 -21.4 1.5 -13.3 0 -21.7 -0.4 -22.1 -1z"/>
  <path d="M272 141.3 c0.1 -0.5 1.9 -4.2 4 -8.3 l3.9 -7.5 0 6 c0.1 9.1 -0.5 10.5 -4.5 10.5 -1.9 0 -3.4 -0.3 -3.4 -0.7z"/>
 </g>
 <g fill="#605747">
  <path d="M150.8 383.4 c-3.2 -1.7 -4.8 -4.3 -4.8 -7.8 0 -2.3 0.4 -2.5 5.3 -2.8 l5.2 -0.3 0 -43 0 -43 -2.2 -0.3 c-2 -0.3 -2.1 -0.6 -1.6 -10.3 l0.6 -9.9 -7.2 0 c-5.5 0 -7.1 -0.3 -7.1 -1.4 0 -0.8 0.8 -1.7 1.8 -1.9 1.6 -0.4 1.6 -0.5 0 -0.6 -1 0 -1.8 -0.8 -1.8 -1.6 0 -1.2 1.4 -1.5 6.5 -1.5 l6.5 0 0 -4 0 -4 -10.5 0 -10.5 0 0 -3.5 0 -3.5 10.4 0 c12 0 11.6 0.3 11.6 -9.5 0 -3.5 0.5 -7.6 1.2 -9 l1.1 -2.5 61.3 0 c57.5 0 61.3 0.1 61.7 1.8 0.4 1.6 0.5 1.6 0.6 0 0.1 -1.6 1.2 -1.8 8.6 -1.8 7.8 0 8.5 0.2 8.5 2 0 1.9 0.7 2 25.8 2 16.2 0 25.2 -0.4 24.2 -1 -0.8 -0.5 -1.2 -1 -1 -1.2 0.3 -0.2 17.9 -0.2 39.1 0 l38.7 0.3 1.2 9.4 c1.3 9.5 0.7 15.2 -1 11 -0.5 -1.1 -0.8 27 -0.7 62.5 l0.2 64.5 5.3 0.3 c4.8 0.3 5.2 0.5 5.2 2.9 0 1.5 -1.3 3.8 -3.4 5.9 l-3.4 3.4 -136.4 0 c-118.3 -0.1 -136.7 -0.3 -139 -1.6z m20.2 -19.9 c0 -1.3 13.6 -1.5 116.5 -1.5 l116.5 0 0 -61.1 c0 -57.6 0.1 -61 1.8 -60.7 1.6 0.3 1.7 4.2 2 62.6 l0.2 62.2 3.5 0 3.5 0 0 -66 0 -66 -125.5 0 -125.5 0 0 66 0 66 3.5 0 c2.4 0 3.5 -0.5 3.5 -1.5z m-26.2 -116.2 c-1 -0.2 -2.6 -0.2 -3.5 0 -1 0.3 -0.2 0.5 1.7 0.5 1.9 0 2.7 -0.2 1.8 -0.5z"/>
  <path d="M386 339 c0 -14.9 0.2 -18 1.4 -18 0.8 0 1.7 0.8 1.9 1.8 0.4 1.6 0.5 1.6 0.6 0 0 -1 0.8 -1.8 1.6 -1.8 1.3 0 1.5 2.7 1.5 18 l0 18 -3.5 0 -3.5 0 0 -18z m3.7 -0.7 c-0.3 -1 -0.5 -0.2 -0.5 1.7 0 1.9 0.2 2.7 0.5 1.8 0.2 -1 0.2 -2.6 0 -3.5z"/>
  <path d="M362 348.5 c0 -3.5 0 -3.5 4.5 -3.5 3.2 0 4.5 0.4 4.5 1.4 0 0.8 -0.8 1.7 -1.7 1.9 -1.7 0.4 -1.7 0.5 0 0.6 0.9 0 1.7 0.8 1.7 1.6 0 1.1 -1.2 1.5 -4.5 1.5 -4.5 0 -4.5 0 -4.5 -3.5z"/>
  <path d="M378.2 348.5 c0 -3.3 0.2 -3.5 3.4 -3.5 3.2 0 3.4 0.2 3.4 3.5 0 3.3 -0.2 3.5 -3.4 3.5 -3.2 0 -3.4 -0.2 -3.4 -3.5z"/>
  <path d="M394 348.5 c0 -3.3 0.2 -3.5 3.5 -3.5 3.3 0 3.5 0.2 3.5 3.5 0 3.3 -0.2 3.5 -3.5 3.5 -3.3 0 -3.5 -0.2 -3.5 -3.5z"/>
  <path d="M221 340.5 l0 -3.5 26.5 0 26.5 0 0 3.5 0 3.5 -26.5 0 -26.5 0 0 -3.5z"/>
  <path d="M289 340.5 l0 -3.5 10.5 0 10.5 0 0 -7 0 -7 -5.5 0 -5.5 0 0 3.5 0 3.5 -8 0 c-6.3 0 -8 -0.3 -8 -1.4 0 -0.8 0.8 -1.7 1.8 -1.9 1.6 -0.4 1.6 -0.5 0 -0.6 -1 0 -1.8 -0.8 -1.8 -1.6 0 -1.1 1.2 -1.5 4.5 -1.5 4.5 0 4.5 0 4.5 -3.5 l0 -3.5 19 0 19 0 0 3.5 c0 2.4 0.5 3.5 1.5 3.5 2.1 0 1.9 2.8 -0.2 3.3 -1.7 0.4 -1.7 0.5 0 0.6 1.2 0.1 1.7 1 1.7 3 0 2 -0.6 3.1 -1.7 3.4 -1.7 0.4 -1.7 0.5 0 0.6 0.9 0 1.7 0.8 1.7 1.6 0 1 1.1 1.5 3.5 1.5 2.4 0 3.5 -0.5 3.5 -1.4 0 -0.8 0.8 -1.7 1.8 -1.9 1.6 -0.4 1.6 -0.5 0 -0.6 -1.3 -0.1 -1.8 -1 -1.8 -3 0 -2 0.6 -3.1 1.8 -3.4 1.6 -0.4 1.6 -0.5 0 -0.6 -1 0 -1.8 -0.8 -1.8 -1.6 0 -1.2 1.9 -1.5 11.5 -1.5 l11.5 0 0 7 0 7 6 0 6 0 0 3.5 0 3.5 -11.5 0 -11.5 0 0 -3.5 0 -3.5 -5.5 0 -5.5 0 0 3.5 0 3.5 -26 0 -26 0 0 -3.5z m23.8 -21.2 c-1 -0.2 -2.6 -0.2 -3.5 0 -1 0.3 -0.2 0.5 1.7 0.5 1.9 0 2.7 -0.2 1.8 -0.5z"/>
  <path d="M244 326.5 l0 -3.5 7.5 0 c5.8 0 7.5 0.3 7.5 1.4 0 0.8 -0.8 1.7 -1.7 1.9 -1.7 0.4 -1.7 0.5 0 0.6 0.9 0 1.7 0.8 1.7 1.6 0 1.2 -1.5 1.5 -7.5 1.5 l-7.5 0 0 -3.5z"/>
  <path d="M394 319.5 c0 -3.4 0.1 -3.5 4 -3.5 3.9 0 4 0.1 4 3.5 0 3.4 -0.1 3.5 -4 3.5 -3.9 0 -4 -0.1 -4 -3.5z"/>
  <path d="M206 304.5 l0 -3.5 7.5 0 c5.8 0 7.5 0.3 7.5 1.4 0 0.8 -0.8 1.7 -1.7 1.9 -1.7 0.4 -1.7 0.5 0 0.6 0.9 0 1.7 0.8 1.7 1.6 0 1.2 -1.5 1.5 -7.5 1.5 l-7.5 0 0 -3.5z"/>
  <path d="M245 306.6 c0 -0.8 0.8 -1.7 1.8 -1.9 1.6 -0.4 1.6 -0.5 0 -0.6 -1 0 -1.8 -0.8 -1.8 -1.6 0 -1.2 1.6 -1.5 8 -1.5 l8 0 0 3.5 0 3.5 -8 0 c-6.3 0 -8 -0.3 -8 -1.4z"/>
  <path d="M272 304.5 l0 -3.5 11.5 0 c9.3 0 11.5 0.3 11.5 1.4 0 0.8 -0.8 1.7 -1.7 1.9 -1.7 0.4 -1.7 0.5 0 0.6 0.9 0 1.7 0.8 1.7 1.6 0 1.2 -1.9 1.5 -11.5 1.5 l-11.5 0 0 -3.5z"/>
  <path d="M302 306.6 c0 -0.8 0.8 -1.7 1.8 -1.9 1.6 -0.4 1.6 -0.5 0 -0.6 -1 0 -1.8 -0.8 -1.8 -1.6 0 -1.2 1.9 -1.5 11.5 -1.5 l11.5 0 0 3.5 0 3.5 -11.5 0 c-9.3 0 -11.5 -0.3 -11.5 -1.4z"/>
  <path d="M227.7 293.3 c-0.4 -0.3 -0.7 -2.1 -0.7 -3.8 l0 -3.3 8.3 -0.4 c7.7 -0.5 14.2 -0.5 26.5 0 l5.2 0.2 0 4 0 4 -19.3 0 c-10.7 0 -19.7 -0.3 -20 -0.7z"/>
  <path d="M294.7 293.3 c-0.4 -0.3 -0.7 -2.1 -0.7 -4 l0 -3.3 8 0 8 0 0 -7 c0 -5.6 0.3 -7 1.5 -7 0.8 0 1.5 -0.6 1.5 -1.4 0 -0.8 0.8 -1.7 1.8 -1.9 1.6 -0.4 1.6 -0.5 0 -0.6 -1 0 -1.8 -0.8 -1.8 -1.6 0 -1.2 1.6 -1.5 8.5 -1.5 l8.5 0 0 3.5 c0 2.4 0.5 3.5 1.5 3.5 2.1 0 1.9 2.8 -0.2 3.3 -1.7 0.4 -1.7 0.5 0 0.6 1.2 0.1 1.7 1 1.7 3 0 2 -0.6 3.1 -1.7 3.4 -1.5 0.4 -1.6 0.5 -0.2 0.6 1.8 0.1 2.9 2.9 2.9 7.9 l0 3.2 -19.3 0 c-10.7 0 -19.7 -0.3 -20 -0.7z"/>
  <path d="M352.7 293.3 c-0.4 -0.3 -0.7 -2.1 -0.7 -4 l0 -3.3 -6 0 c-4.5 0 -6 -0.3 -6 -1.4 0 -0.8 0.8 -1.7 1.8 -1.9 1.6 -0.4 1.6 -0.5 0 -0.6 -1.3 -0.1 -1.8 -1 -1.8 -3 0 -2 0.6 -3.1 1.8 -3.4 1.6 -0.4 1.6 -0.5 0 -0.6 -1 0 -1.8 -0.8 -1.8 -1.6 0 -1.2 1.9 -1.5 11.5 -1.5 l11.5 0 0 7 0 7 5 0 5 0 0 4 0 4 -9.8 0 c-5.4 0 -10.2 -0.3 -10.5 -0.7z"/>
  <path d="M393.7 293.3 c-0.4 -0.3 -0.7 -2.1 -0.7 -4 0 -3.2 0.1 -3.3 4 -3.3 l4 0 0 4 c0 3.9 -0.1 4 -3.3 4 -1.9 0 -3.7 -0.3 -4 -0.7z"/>
  <path d="M386 274.5 c0 -7.6 0.3 -9.5 1.4 -9.5 0.8 0 1.7 0.8 1.9 1.8 0.4 1.6 0.5 1.6 0.6 0 0 -1 0.8 -1.8 1.6 -1.8 1.2 0 1.5 1.7 1.5 9.5 0 7.6 -0.3 9.5 -1.4 9.5 -0.8 0 -1.7 -0.8 -1.9 -1.7 -0.4 -1.7 -0.5 -1.7 -0.6 0 0 0.9 -0.8 1.7 -1.6 1.7 -1.2 0 -1.5 -1.7 -1.5 -9.5z"/>
  <path d="M244 275.5 l0 -3.5 7.5 0 c5.8 0 7.5 0.3 7.5 1.4 0 0.8 -0.8 1.7 -1.7 1.9 -1.7 0.4 -1.7 0.5 0 0.6 0.9 0 1.7 0.8 1.7 1.6 0 1.2 -1.5 1.5 -7.5 1.5 l-7.5 0 0 -3.5z"/>
  <path d="M283 277.6 c0 -0.8 0.8 -1.7 1.8 -1.9 1.6 -0.4 1.6 -0.5 0 -0.6 -1 0 -1.8 -0.8 -1.8 -1.6 0 -1.1 1.2 -1.5 4.5 -1.5 4.5 0 4.5 0 4.5 -3.5 l0 -3.5 8.5 0 c6.7 0 8.5 0.3 8.5 1.4 0 0.8 -0.8 1.7 -1.7 1.9 -1.7 0.4 -1.7 0.5 0 0.6 0.9 0 1.7 0.8 1.7 1.6 0 1.2 -1.3 1.5 -5.5 1.5 l-5.5 0 0 3.5 0 3.5 -7.5 0 c-5.8 0 -7.5 -0.3 -7.5 -1.4z"/>
  <path d="M362 260.5 l0 -3.5 5 0 c3.7 0 5 0.4 5 1.4 0 0.8 -0.8 1.7 -1.7 1.9 -1.7 0.4 -1.7 0.5 0 0.6 0.9 0 1.7 0.8 1.7 1.6 0 1.1 -1.2 1.5 -5 1.5 l-5 0 0 -3.5z"/>
  <path d="M374 262.6 c0 -0.8 0.8 -1.7 1.8 -1.9 1.6 -0.4 1.6 -0.5 0 -0.6 -1 0 -1.8 -0.8 -1.8 -1.6 0 -1.2 1.3 -1.5 5.5 -1.5 l5.5 0 0 3.5 0 3.5 -5.5 0 c-4.1 0 -5.5 -0.4 -5.5 -1.4z"/>
  <path d="M386 255 l0 -9 3.5 0 3.5 0 0 9 c0 7.1 -0.3 9 -1.4 9 -0.8 0 -1.7 -0.8 -1.9 -1.7 -0.4 -1.7 -0.5 -1.7 -0.6 0 0 0.9 -0.8 1.7 -1.6 1.7 -1.2 0 -1.5 -1.7 -1.5 -9z"/>
  <path d="M394 246.5 c0 -3.4 0.1 -3.5 4 -3.5 3.9 0 4 0.1 4 3.5 0 3.4 -0.1 3.5 -4 3.5 -3.9 0 -4 -0.1 -4 -3.5z"/>
  <path d="M63 370 c0 -0.4 0.7 -1.1 1.6 -1.4 1.2 -0.5 0.6 -2.3 -3.5 -10.3 -2.8 -5.3 -4.8 -9.9 -4.5 -10.2 0.7 -0.7 28.3 -2.4 29.7 -1.8 1.1 0.4 3.8 5.3 8.2 15 l1.7 3.7 8.4 0 c4.5 0 8.6 0.5 8.9 1 0.4 0.6 -2.7 1 -8.4 1 -7.2 0 -9.1 0.3 -9.1 1.4 0 0.9 -1.4 1.6 -3.7 2 -5.7 0.8 -29.3 0.5 -29.3 -0.4z m15 -13 c0 -0.5 -0.9 -1 -2 -1 -1.1 0 -2 0.5 -2 1 0 0.6 0.9 1 2 1 1.1 0 2 -0.4 2 -1z"/>
  <path d="M108 262.5 l0 -3.5 11.5 0 c9.3 0 11.5 0.3 11.5 1.4 0 0.8 -0.8 1.7 -1.7 1.9 -1.7 0.4 -1.7 0.5 0 0.6 0.9 0 1.7 0.8 1.7 1.6 0 1.2 -1.9 1.5 -11.5 1.5 l-11.5 0 0 -3.5z"/>
  <path d="M92 226.5 l0 -3.5 6.5 0 c4.9 0 6.5 0.3 6.5 1.4 0 0.8 -0.6 1.7 -1.2 1.9 -1 0.4 -1 0.6 0 0.6 0.6 0.1 1.2 0.8 1.2 1.6 0 1.2 -1.4 1.5 -6.5 1.5 l-6.5 0 0 -3.5z"/>
  <path d="M135 228.6 c0 -0.8 0.6 -1.7 1.3 -1.9 1 -0.4 1 -0.6 0 -0.6 -0.7 -0.1 -1.3 -0.8 -1.3 -1.6 0 -1.2 1.4 -1.5 6.5 -1.5 l6.5 0 0 3.5 0 3.5 -6.5 0 c-4.9 0 -6.5 -0.3 -6.5 -1.4z"/>
  <path d="M283 218.5 c0 -3.4 0.1 -3.5 4 -3.5 3.9 0 4 0.1 4 3.5 0 3.4 -0.1 3.5 -4 3.5 -3.9 0 -4 -0.1 -4 -3.5z"/>
  <path d="M108 211.5 l0 -3.5 8.5 0 8.5 0 0 3.5 0 3.5 -8.5 0 -8.5 0 0 -3.5z"/>
  <path d="M145 211.5 l0 -3.5 8.5 0 8.5 0 0 3.5 0 3.5 -8.5 0 -8.5 0 0 -3.5z"/>
  <path d="M176 211.5 l0 -3.5 8.5 0 8.5 0 0 3.5 0 3.5 -8.5 0 -8.5 0 0 -3.5z"/>
  <path d="M213 211.5 l0 -3.5 -7.5 0 -7.5 0 0 -7 0 -7 7 0 c5.4 0 7 0.3 7 1.4 0 0.8 -0.8 1.7 -1.7 1.9 -1.7 0.4 -1.7 0.5 0 0.6 0.9 0 1.7 0.8 1.7 1.6 0 0.8 0.7 1.5 1.6 1.5 0.9 0 1.4 0.8 1.3 1.8 -0.5 5.1 -0.3 5.2 7.6 5.2 l7.5 0 0 3.5 0 3.5 -8.5 0 -8.5 0 0 -3.5z"/>
  <path d="M241 211.5 c0 -3.2 -0.2 -3.5 -3 -3.5 -2.8 0 -3 -0.3 -3 -3.5 0 -2.4 0.5 -3.5 1.5 -3.5 0.8 0 1.5 -0.6 1.5 -1.4 0 -0.8 0.8 -1.7 1.8 -1.9 1.6 -0.4 1.6 -0.5 0 -0.6 -1 0 -1.8 -0.8 -1.8 -1.6 0 -1.2 1.4 -1.5 6.4 -1.5 l6.3 0 0.7 5.3 c0.9 7.6 0.8 8.7 -0.9 8.7 -0.8 0 -1.5 0.6 -1.5 1.4 0 0.8 -0.8 1.7 -1.7 1.9 -1.7 0.4 -1.7 0.5 0 0.6 0.9 0 1.7 0.8 1.7 1.6 0 1.1 -1.1 1.5 -4 1.5 -3.9 0 -4 -0.1 -4 -3.5z"/>
  <path d="M255 213.6 c0 -0.8 0.8 -1.7 1.8 -1.9 1.6 -0.4 1.6 -0.5 0 -0.6 -1 0 -1.8 -0.8 -1.8 -1.6 0 -1 1.1 -1.5 3.5 -1.5 3.3 0 3.5 0.2 3.5 3.5 0 3.3 -0.2 3.5 -3.5 3.5 -2.4 0 -3.5 -0.5 -3.5 -1.4z"/>
  <path d="M365.8 212.3 c-4.2 -0.5 -4.5 -0.8 -2.3 -2.9 0.9 -0.9 4.5 -1.7 9.5 -2.1 4.4 -0.3 8.4 -1.1 8.9 -1.7 0.4 -0.6 2.3 -5 4.2 -9.8 l3.4 -8.8 17.8 0 17.7 0 -5.5 11 c-4.5 8.9 -5.9 11 -7.8 11.1 -1.7 0.1 -1.8 0.2 -0.4 0.6 0.9 0.2 1.7 1.1 1.7 2 0 1.2 -0.8 1.4 -4.2 0.8 -7.9 -1.3 -29 -1.7 -30.1 -0.6 -1.1 1.1 -5.3 1.2 -12.9 0.4z m40.2 -14.4 c0 -1.2 -2.9 -2.4 -3.7 -1.6 -0.3 0.4 -0.3 1.3 0 2.1 0.6 1.6 3.7 1.1 3.7 -0.5z"/>
  <path d="M131 197.5 l0 -3.5 7.5 0 7.5 0 0 3.5 0 3.5 -7.5 0 -7.5 0 0 -3.5z"/>
  <path d="M171 197.5 l0 -3.5 7.5 0 7.5 0 0 3.5 0 3.5 -7.5 0 -7.5 0 0 -3.5z"/>
  <path d="M217 199.6 c0 -0.8 0.8 -1.7 1.8 -1.9 1.6 -0.4 1.6 -0.5 0 -0.6 -1 0 -1.8 -0.8 -1.8 -1.6 0 -1.2 1.6 -1.5 8 -1.5 6.3 0 8 0.3 8 1.4 0 0.8 -0.8 1.7 -1.7 1.9 -1.7 0.4 -1.7 0.5 0 0.6 0.9 0 1.7 0.8 1.7 1.6 0 1.2 -1.6 1.5 -8 1.5 -6.3 0 -8 -0.3 -8 -1.4z"/>
  <path d="M275 185 l0 -11 3.5 0 3.5 0 0 11 0 11 -3.5 0 -3.5 0 0 -11z"/>
  <path d="M180 189.5 l0 -3.5 7.5 0 c5.8 0 7.5 0.3 7.5 1.4 0 0.8 -0.8 1.7 -1.7 1.9 -1.7 0.4 -1.7 0.5 0 0.6 0.9 0 1.7 0.8 1.7 1.6 0 1.2 -1.5 1.5 -7.5 1.5 l-7.5 0 0 -3.5z"/>
  <path d="M201 191.6 c0 -0.8 0.8 -1.7 1.8 -1.9 1.6 -0.4 1.6 -0.5 0 -0.6 -1 0 -1.8 -0.8 -1.8 -1.6 0 -1.2 1.6 -1.5 8.5 -1.5 l8.5 0 0 3.5 0 3.5 -8.5 0 c-6.7 0 -8.5 -0.3 -8.5 -1.4z"/>
  <path d="M283 189.5 c0 -3.4 0.1 -3.5 4 -3.5 3.9 0 4 0.1 4 3.5 0 3.4 -0.1 3.5 -4 3.5 -3.9 0 -4 -0.1 -4 -3.5z"/>
  <path d="M251 182.5 c0 -3.3 0.2 -3.5 3.5 -3.5 3.7 0 5 2.5 1.8 3.3 -1.7 0.4 -1.7 0.5 0 0.6 0.9 0 1.7 0.8 1.7 1.6 0 1 -1.1 1.5 -3.5 1.5 -3.3 0 -3.5 -0.2 -3.5 -3.5z"/>
  <path d="M449.3 52.3 c-8.3 -12.3 -10.3 -15.5 -8.6 -13.8 1 0.9 15.2 21.6 16.7 24.3 0.4 0.6 0.5 1.2 0.3 1.2 -0.2 0 -3.9 -5.3 -8.4 -11.7z"/>
  <path d="M479.7 56 l3.3 -3.5 -5.8 -5.9 -5.7 -6 6 5.3 c3.3 3 6.1 5.7 6.3 6 0.1 0.4 -1.5 2.2 -3.5 4.1 l-3.8 3.5 3.2 -3.5z"/>
 </g>
 <g fill="#2d475d">
  <path d="M192 340.5 l0 -3.5 10 0 10 0 0 3.5 0 3.5 -10 0 -10 0 0 -3.5z"/>
  <path d="M192 290 l0 -4 12 0 12 0 0 4 0 4 -12 0 -12 0 0 -4z"/>
  <path d="M335 268.5 l0 -3.5 19.5 0 19.5 0 0 3.5 0 3.5 -19.5 0 -19.5 0 0 -3.5z"/>
  <path d="M79 262.5 l0 -3.5 11.5 0 11.5 0 0 3.5 0 3.5 -11.5 0 -11.5 0 0 -3.5z"/>
  <path d="M221 189.5 c0 -3.4 0.1 -3.5 4 -3.5 3.9 0 4 0.1 4 3.5 0 3.4 -0.1 3.5 -4 3.5 -3.9 0 -4 -0.1 -4 -3.5z"/>
  <path d="M256 189.5 c0 -3.3 0.2 -3.5 3.5 -3.5 3.3 0 3.5 0.2 3.5 3.5 0 3.3 -0.2 3.5 -3.5 3.5 -3.3 0 -3.5 -0.2 -3.5 -3.5z"/>
  <path d="M252.7 178.3 c-0.4 -0.3 -0.7 -2.1 -0.7 -4 l0 -3.3 9 0 9 0 0 4 0 4 -8.3 0 c-4.6 0 -8.7 -0.3 -9 -0.7z"/>
 </g>
 <g fill="#383126">
  <path d="M51 384.7 c-5.9 -3 -6.4 -10.3 -0.9 -13.6 3.6 -2.2 15.4 -3.6 29.2 -3.4 5.4 0.1 9.7 -0.2 9.7 -0.8 0 -1.2 5.7 -1.2 6.4 0 0.3 0.5 0.3 5 -0.1 10 l-0.6 9.1 -20.6 0 c-14.5 0 -21.3 -0.4 -23.1 -1.3z"/>
  <path d="M260.2 375 c-2 -1.9 -3.8 -2 -52.9 -2.3 -27.9 -0.1 9.1 -0.2 82.2 -0.2 73.2 0 108.6 0.1 78.8 0.2 -35.1 0.2 -54.3 0.7 -54.3 1.3 0 0.6 -0.7 1 -1.5 1 -0.8 0 -1.5 0.5 -1.5 1 0 0.6 -8.8 1 -24.3 1 -22.9 0 -24.4 -0.1 -26.5 -2z"/>
  <path d="M109.5 365.9 c1.8 -0.5 3.3 -0.5 3.9 0.1 0.7 0.7 -0.4 1 -2.9 0.9 -4 -0.1 -4 -0.1 -1 -1z"/>
  <path d="M289.2 365.3 l-118.2 -0.3 0 -62.5 0 -62.5 118 0 118 0 0.2 63 c0.2 34.7 0.3 62.9 0.3 62.8 0 -0.2 -53.2 -0.4 -118.3 -0.5z m100.5 -26.5 c-0.2 -2.9 -0.3 -0.6 -0.3 5.2 0 5.8 0.1 8.1 0.3 5.3 0.2 -2.9 0.2 -7.7 0 -10.5z m-19.9 9.5 c-1 -0.2 -2.6 -0.2 -3.5 0 -1 0.3 -0.2 0.5 1.7 0.5 1.9 0 2.7 -0.2 1.8 -0.5z m-163 -8 c-1.5 -0.2 -4.2 -0.2 -6 0 -1.8 0.2 -0.6 0.4 2.7 0.4 3.3 0 4.8 -0.2 3.3 -0.4z m53 0 c-6.4 -0.2 -17.2 -0.2 -24 0 -6.8 0.1 -1.5 0.3 11.7 0.3 13.2 0 18.7 -0.2 12.3 -0.3z m67 0 c-6.5 -0.2 -17.1 -0.2 -23.5 0 -6.5 0.1 -1.2 0.3 11.7 0.3 12.9 0 18.2 -0.2 11.8 -0.3z m41.5 0 c-2.3 -0.2 -6.4 -0.2 -9 0 -2.6 0.2 -0.7 0.3 4.2 0.3 5 0 7.1 -0.1 4.8 -0.3z m-46.5 -7 c-1.5 -0.2 -4.2 -0.2 -6 0 -1.8 0.2 -0.6 0.4 2.7 0.4 3.3 0 4.8 -0.2 3.3 -0.4z m20.5 0 c-2.9 -0.2 -7.8 -0.2 -11 0 -3.2 0.2 -0.8 0.3 5.2 0.3 6.1 0 8.7 -0.1 5.8 -0.3z m15.5 0 c-1.6 -0.2 -4 -0.2 -5.5 0 -1.6 0.2 -0.3 0.4 2.7 0.4 3 0 4.3 -0.2 2.8 -0.4z m31.9 -45 c-0.1 -7.6 -0.3 -1.4 -0.3 13.7 0 15.1 0.2 21.3 0.3 13.8 0.2 -7.6 0.2 -20 0 -27.5z m-136.9 38 c-1 -0.2 -2.8 -0.2 -4 0 -1.3 0.2 -0.5 0.4 1.7 0.4 2.2 0.1 3.2 -0.1 2.3 -0.4z m9.5 0 c-1.3 -0.2 -3.5 -0.2 -5 0 -1.6 0.2 -0.5 0.4 2.2 0.4 2.8 0 4 -0.2 2.8 -0.4z m23.5 0 c-1.6 -0.2 -4 -0.2 -5.5 0 -1.6 0.2 -0.3 0.4 2.7 0.4 3 0 4.3 -0.2 2.8 -0.4z m9 0 c-1 -0.2 -2.8 -0.2 -4 0 -1.3 0.2 -0.5 0.4 1.7 0.4 2.2 0.1 3.2 -0.1 2.3 -0.4z m27 0 c-1.5 -0.2 -4.2 -0.2 -6 0 -1.8 0.2 -0.6 0.4 2.7 0.4 3.3 0 4.8 -0.2 3.3 -0.4z m20.5 0 c-2.9 -0.2 -7.8 -0.2 -11 0 -3.2 0.2 -0.8 0.3 5.2 0.3 6.1 0 8.7 -0.1 5.8 -0.3z m15.5 0 c-1.6 -0.2 -4 -0.2 -5.5 0 -1.6 0.2 -0.3 0.4 2.7 0.4 3 0 4.3 -0.2 2.8 -0.4z m-38.5 -7 c-4.6 -0.2 -12 -0.2 -16.5 0 -4.6 0.1 -0.9 0.3 8.2 0.3 9.1 0 12.8 -0.2 8.3 -0.3z m-104.5 -15 c-1 -0.2 -2.8 -0.2 -4 0 -1.3 0.2 -0.5 0.4 1.7 0.4 2.2 0.1 3.2 -0.1 2.3 -0.4z m9.5 0 c-1.3 -0.2 -3.5 -0.2 -5 0 -1.6 0.2 -0.5 0.4 2.2 0.4 2.8 0 4 -0.2 2.8 -0.4z m23.5 0 c-1.6 -0.2 -4 -0.2 -5.5 0 -1.6 0.2 -0.3 0.4 2.7 0.4 3 0 4.3 -0.2 2.8 -0.4z m9 0 c-1 -0.2 -2.8 -0.2 -4 0 -1.3 0.2 -0.5 0.4 1.7 0.4 2.2 0.1 3.2 -0.1 2.3 -0.4z m27 0 c-1.5 -0.2 -4.2 -0.2 -6 0 -1.8 0.2 -0.6 0.4 2.7 0.4 3.3 0 4.8 -0.2 3.3 -0.4z m20.5 0 c-2.9 -0.2 -7.8 -0.2 -11 0 -3.2 0.2 -0.8 0.3 5.2 0.3 6.1 0 8.7 -0.1 5.8 -0.3z m15.5 0 c-1.6 -0.2 -4 -0.2 -5.5 0 -1.6 0.2 -0.3 0.4 2.7 0.4 3 0 4.3 -0.2 2.8 -0.4z m-106.8 -14.3 c0 -0.6 -3.7 -1 -9 -1 -5.3 0 -9 0.4 -9 1 0 0.6 3.7 1 9 1 5.3 0 9 -0.4 9 -1z m51 0 c0 -0.5 -2.1 -1 -4.7 -1 -2.7 -0.1 -8.2 -0.1 -12.3 -0.1 -13.6 -0.2 -17.1 0.1 -16.5 1.1 0.4 0.6 7.2 1 17.1 1 10.3 0 16.4 -0.4 16.4 -1z m67 0 c0 -0.6 -6.4 -1 -17.1 -1 -11.1 0 -16.8 0.3 -16.4 1 0.4 0.6 7.2 1 17.1 1 10.3 0 16.4 -0.4 16.4 -1z m39 0 c0 -0.6 -3.2 -1 -7.6 -1 -4.7 0 -7.3 0.4 -6.9 1 0.3 0.6 3.7 1 7.6 1 3.9 0 6.9 -0.4 6.9 -1z m-48.2 -7.7 c-1.5 -0.2 -4.2 -0.2 -6 0 -1.8 0.2 -0.6 0.4 2.7 0.4 3.3 0 4.8 -0.2 3.3 -0.4z m20.5 0 c-2.9 -0.2 -7.8 -0.2 -11 0 -3.2 0.2 -0.8 0.3 5.2 0.3 6.1 0 8.7 -0.1 5.8 -0.3z m15.5 0 c-1.5 -0.2 -4.2 -0.2 -6 0 -1.8 0.2 -0.6 0.4 2.7 0.4 3.3 0 4.8 -0.2 3.3 -0.4z m-105 -7 c-1 -0.2 -2.8 -0.2 -4 0 -1.3 0.2 -0.5 0.4 1.7 0.4 2.2 0.1 3.2 -0.1 2.3 -0.4z m10 0 c-1.6 -0.2 -4 -0.2 -5.5 0 -1.6 0.2 -0.3 0.4 2.7 0.4 3 0 4.3 -0.2 2.8 -0.4z m22.5 0 c-1.3 -0.2 -3.5 -0.2 -5 0 -1.6 0.2 -0.5 0.4 2.2 0.4 2.8 0 4 -0.2 2.8 -0.4z m8.5 0 c-1 -0.2 -2.8 -0.2 -4 0 -1.3 0.2 -0.5 0.4 1.7 0.4 2.2 0.1 3.2 -0.1 2.3 -0.4z m28 0 c-1.5 -0.2 -4.2 -0.2 -6 0 -1.8 0.2 -0.6 0.4 2.7 0.4 3.3 0 4.8 -0.2 3.3 -0.4z m20.5 0 c-2.9 -0.2 -7.8 -0.2 -11 0 -3.2 0.2 -0.8 0.3 5.2 0.3 6.1 0 8.7 -0.1 5.8 -0.3z m15.5 0 c-1.5 -0.2 -4.2 -0.2 -6 0 -1.8 0.2 -0.6 0.4 2.7 0.4 3.3 0 4.8 -0.2 3.3 -0.4z m31.9 -21 c-0.2 -3.2 -0.3 -0.8 -0.3 5.2 0 6.1 0.1 8.7 0.3 5.8 0.2 -2.9 0.2 -7.8 0 -11z m-88.9 14 c-1 -0.2 -2.8 -0.2 -4 0 -1.3 0.2 -0.5 0.4 1.7 0.4 2.2 0.1 3.2 -0.1 2.3 -0.4z m14 0 c-2.1 -0.2 -5.5 -0.2 -7.5 0 -2.1 0.2 -0.4 0.4 3.7 0.4 4.1 0 5.8 -0.2 3.8 -0.4z m11 0 c-1 -0.2 -2.8 -0.2 -4 0 -1.3 0.2 -0.5 0.4 1.7 0.4 2.2 0.1 3.2 -0.1 2.3 -0.4z m37.5 0 c-4.5 -0.2 -12.2 -0.2 -17 0 -4.8 0.1 -1.1 0.3 8.2 0.3 9.4 0 13.3 -0.2 8.8 -0.3z m15 -8 c-2.3 -0.2 -6.4 -0.2 -9 0 -2.6 0.2 -0.7 0.3 4.2 0.3 5 0 7.1 -0.1 4.8 -0.3z"/>
  <path d="M63.8 286.2 c-1.3 -0.2 -1.8 -1.3 -1.8 -4.1 0 -3.6 0.1 -3.7 3 -3.3 3.3 0.5 3.5 1.4 1.7 5.3 -0.8 1.6 -1.8 2.4 -2.9 2.1z"/>
  <path d="M69 284.9 c0 -0.6 0.5 -1.9 1 -2.9 0.9 -1.8 1.3 -1.8 4.9 -0.5 2.2 0.7 5.2 2 6.8 2.9 2.7 1.5 2.6 1.5 -4.9 1.6 -4.9 0 -7.8 -0.4 -7.8 -1.1z"/>
  <path d="M84.5 284 c-1.6 -1.1 -5.4 -2.7 -8.3 -3.6 -3.5 -1 -5.2 -2 -4.9 -2.9 1.5 -3.6 1.8 -10.7 0.7 -13.9 -1.1 -3.6 -5.1 -6.6 -8.5 -6.6 -1.3 0 -1.5 -5 -1.5 -45 l0 -45 12.3 -0.1 c6.7 0 59.6 -0.1 117.6 -0.3 l105.4 -0.2 -0.7 11 c-0.3 6.1 -0.6 19.5 -0.6 29.9 l0 18.7 -8.5 0 -8.4 0 -0.4 -15.2 -0.3 -15.3 -0.2 15.3 -0.2 15.2 -59.9 0 -59.9 0 -1.1 2.8 c-0.6 1.5 -1.3 9.2 -1.5 17.2 -0.2 8 -0.4 14.8 -0.5 15.2 -0.1 0.4 -1.8 0.9 -3.8 1.1 l-3.8 0.4 4.3 0.1 4.2 0.2 0 9.9 c0 5.5 -0.3 10.6 -0.6 11.5 -0.5 1.3 -2.4 1.6 -10.3 1.6 -9.1 0 -9.9 -0.2 -12.1 -2.5 -1.8 -2 -2.1 -2.8 -1.2 -3.7 1.9 -1.9 1.4 -5.6 -0.8 -6.8 -2.7 -1.4 -5.8 0.2 -6.6 3.5 -0.5 1.9 -1.3 2.5 -3.3 2.5 -4.7 0 -10 2 -11.9 4.5 -1.9 2.4 -2.6 2.5 -11.8 2.5 -8.3 0 -10.4 -0.3 -12.9 -2z m10.8 -21.7 c-2.3 -0.2 -6.4 -0.2 -9 0 -2.6 0.2 -0.7 0.3 4.2 0.3 5 0 7.1 -0.1 4.8 -0.3z m24.5 0 c-1.5 -0.2 -4.2 -0.2 -6 0 -1.8 0.2 -0.6 0.4 2.7 0.4 3.3 0 4.8 -0.2 3.3 -0.4z m20.5 0 c-2.9 -0.2 -7.8 -0.2 -11 0 -3.2 0.2 -0.8 0.3 5.2 0.3 6.1 0 8.7 -0.1 5.8 -0.3z m7 -15 c-2.3 -0.2 -6.4 -0.2 -9 0 -2.6 0.2 -0.7 0.3 4.2 0.3 5 0 7.1 -0.1 4.8 -0.3z m-46.5 -21 c-1 -0.2 -2.8 -0.2 -4 0 -1.3 0.2 -0.5 0.4 1.7 0.4 2.2 0.1 3.2 -0.1 2.3 -0.4z m28 0 c-4.9 -0.2 -12.7 -0.2 -17.5 0 -4.9 0.1 -0.9 0.3 8.7 0.3 9.6 0 13.6 -0.2 8.8 -0.3z m15 0 c-1 -0.2 -2.8 -0.2 -4 0 -1.3 0.2 -0.5 0.4 1.7 0.4 2.2 0.1 3.2 -0.1 2.3 -0.4z m-24 -15 c-1.5 -0.2 -4.2 -0.2 -6 0 -1.8 0.2 -0.6 0.4 2.7 0.4 3.3 0 4.8 -0.2 3.3 -0.4z m20.5 0 c-2.9 -0.2 -7.7 -0.2 -10.5 0 -2.9 0.2 -0.6 0.3 5.2 0.3 5.8 0 8.1 -0.1 5.3 -0.3z m16.5 0 c-1.5 -0.2 -4.2 -0.2 -6 0 -1.8 0.2 -0.6 0.4 2.7 0.4 3.3 0 4.8 -0.2 3.3 -0.4z m31 0 c-1.5 -0.2 -4.2 -0.2 -6 0 -1.8 0.2 -0.6 0.4 2.7 0.4 3.3 0 4.8 -0.2 3.3 -0.4z m20.5 0 c-2.9 -0.2 -7.7 -0.2 -10.5 0 -2.9 0.2 -0.6 0.3 5.2 0.3 5.8 0 8.1 -0.1 5.3 -0.3z m16.5 0 c-1.5 -0.2 -4.2 -0.2 -6 0 -1.8 0.2 -0.6 0.4 2.7 0.4 3.3 0 4.8 -0.2 3.3 -0.4z m31.5 0 c-2.4 -0.2 -6.2 -0.2 -8.5 0 -2.4 0.2 -0.5 0.4 4.2 0.4 4.7 0 6.6 -0.2 4.3 -0.4z m-46.5 -7 c-1.5 -0.2 -4.2 -0.2 -6 0 -1.8 0.2 -0.6 0.4 2.7 0.4 3.3 0 4.8 -0.2 3.3 -0.4z m20.5 0 c-2.9 -0.2 -7.8 -0.2 -11 0 -3.2 0.2 -0.8 0.3 5.2 0.3 6.1 0 8.7 -0.1 5.8 -0.3z m16.5 0 c-1.5 -0.2 -4.2 -0.2 -6 0 -1.8 0.2 -0.6 0.4 2.7 0.4 3.3 0 4.8 -0.2 3.3 -0.4z m-105.5 -7 c-1.3 -0.2 -3.5 -0.2 -5 0 -1.6 0.2 -0.5 0.4 2.2 0.4 2.8 0 4 -0.2 2.8 -0.4z m24 0 c-3.4 -0.2 -9.3 -0.2 -13 0 -3.7 0.2 -0.9 0.3 6.2 0.3 7.2 0 10.2 -0.1 6.8 -0.3z m16 0 c-1.3 -0.2 -3.5 -0.2 -5 0 -1.6 0.2 -0.5 0.4 2.2 0.4 2.8 0 4 -0.2 2.8 -0.4z m55.5 0 c-6.4 -0.2 -17.2 -0.2 -24 0 -6.8 0.1 -1.5 0.3 11.7 0.3 13.2 0 18.7 -0.2 12.3 -0.3z m41.9 -16.5 c-0.2 -2.4 -0.4 -0.5 -0.4 4.2 0 4.7 0.2 6.6 0.4 4.3 0.2 -2.4 0.2 -6.2 0 -8.5z m-71.4 8.5 c-4.6 -0.2 -12 -0.2 -16.5 0 -4.6 0.1 -0.9 0.3 8.2 0.3 9.1 0 12.8 -0.2 8.3 -0.3z m57.5 -7 c-2.1 -0.2 -5.5 -0.2 -7.5 0 -2.1 0.2 -0.4 0.4 3.7 0.4 4.1 0 5.8 -0.2 3.8 -0.4z m2.2 -7.3 c0 -0.6 -2.7 -1 -6.1 -1 -3.7 0 -5.8 0.4 -5.4 1 0.3 0.6 3.1 1 6.1 1 3 0 5.4 -0.4 5.4 -1z"/>
  <path d="M62.7 277.3 c-0.4 -0.3 -0.7 -4.6 -0.7 -9.5 0 -8 0.2 -8.8 1.9 -8.8 1 0 2.9 0.8 4.2 1.9 1.8 1.5 2.3 2.8 2.3 6.7 0 8.1 -1 10.4 -4.3 10.4 -1.5 0 -3.1 -0.3 -3.4 -0.7z"/>
  <path d="M428.2 277.2 c-0.7 -0.5 -2.2 -7.8 -3.6 -18.2 -1.4 -9.5 -3 -17.6 -3.6 -18 -0.7 -0.4 -0.8 -1.8 -0.4 -3.4 0.3 -1.5 0.1 -3.2 -0.5 -4 -0.7 -0.8 -0.9 -2.5 -0.6 -3.8 l0.6 -2.3 -35.6 0.3 c-35.2 0.3 -35.6 0.3 -38.7 -1.9 -3.3 -2.4 -5.8 -7.3 -5.8 -11.3 0 -3 0.7 -3.2 14 -4.1 5.2 -0.3 9.6 -1 9.8 -1.4 0.1 -0.4 2.6 -0.4 5.4 0 3.3 0.5 5.6 0.5 6.4 -0.2 2.4 -2 53.8 0.7 58.7 3.1 1.6 0.8 3.5 2.7 4.3 4.2 1.6 3 10 59.6 9 60.5 -0.9 1 -18.1 1.4 -19.4 0.5z"/>
  <path d="M357 133.6 c0 -0.9 -0.4 -1.6 -1 -1.6 -0.5 0 -1 -1.2 -1 -2.6 0 -1.5 -0.7 -3.2 -1.7 -3.9 -2.1 -1.6 -1 -4.5 1.7 -4.5 1.4 0 2 -0.7 2 -2.1 0 -1.9 0.4 -2.1 3.4 -1.6 2.5 0.4 3.6 0.1 4 -0.9 0.7 -1.9 6.5 -1.8 7.2 0.1 0.4 1 1.3 1.3 2.5 1 4.6 -1.5 9 5.9 5.5 9.4 -1.1 1 -1.9 1.2 -2.4 0.6 -1.2 -1.7 -7.1 -3.4 -7.8 -2.3 -0.3 0.5 -1.8 0.8 -3.2 0.7 -4 -0.4 -6 1.2 -6.4 5 -0.3 3.4 -2.8 5.8 -2.8 2.7z"/>
  <path d="M418.5 56 l-3.9 -4 3.9 -3.8 4 -3.7 -3.5 3.8 -3.4 3.7 3.9 4 c2.1 2.2 3.7 4 3.4 4 -0.3 0 -2.3 -1.8 -4.4 -4z"/>
 </g>
</svg>