<?xml version="1.0" encoding="utf-8"?>
<!-- Generator: Adobe Illustrator 24.1.2, SVG Export Plug-In . SVG Version: 6.00 Build 0)  -->
<svg version="1.1" id="Layer_1" xmlns="http://www.w3.org/2000/svg" xmlns:xlink="http://www.w3.org/1999/xlink" x="0px" y="0px"
	 viewBox="0 0 420.94 202.48" style="enable-background:new 0 0 420.94 202.48;" xml:space="preserve">
<style type="text/css">
	.st0{fill:url(#SVGID_1_);}
	.st1{fill:url(#SVGID_2_);}
	.st2{fill:url(#SVGID_3_);}
	.st3{fill:url(#SVGID_4_);}
	.st4{fill:url(#SVGID_5_);}
	.st5{fill:url(#SVGID_6_);}
	.st6{fill:url(#SVGID_7_);}
	.st7{fill:url(#SVGID_8_);}
</style>
<g>
	<g>
		<g>
			<linearGradient id="SVGID_1_" gradientUnits="userSpaceOnUse" x1="63.1094" y1="101.0256" x2="390.4026" y2="107.0706">
				<stop  offset="0" style="stop-color:#F18447"/>
				<stop  offset="0.367" style="stop-color:#CE3359"/>
				<stop  offset="0.642" style="stop-color:#14438E"/>
				<stop  offset="0.9973" style="stop-color:#007ECC"/>
			</linearGradient>
			<path class="st0" d="M229.04,85.06l-6.82,11.47c7.68,4.09,12.34,6.47,15.22,8.1c1.39,0.79,2.54,1.55,2.54,2.31
				c0,0.76-0.97,1.06-2.8,1.06c-5.87,0-17.94,0-17.94,0l-0.07,14.94c0,0,5.75,0,13.56,0c11.94,0,15.92-5.47,15.92-16.41
				C248.65,97.8,244.22,93.38,229.04,85.06z"/>
			<linearGradient id="SVGID_2_" gradientUnits="userSpaceOnUse" x1="62.9584" y1="109.2057" x2="390.2515" y2="115.2506">
				<stop  offset="0" style="stop-color:#F18447"/>
				<stop  offset="0.367" style="stop-color:#CE3359"/>
				<stop  offset="0.642" style="stop-color:#14438E"/>
				<stop  offset="0.9973" style="stop-color:#007ECC"/>
			</linearGradient>
			<path class="st1" d="M337.08,92.33c0,0,0,5.94,0,8.4c0,5.07-0.41,7.27-5.34,7.27h-7.66c3.13-3.2,3.53-6.2,3.53-9.6
				c0-7.8-4.47-11.4-14.27-11.4c-7.67,0-12.25,0-16.54,0L294.33,102c0.67,1.13,2.6,3.53,4.8,6h-6.94h-10.2
				c0-12.33-5.14-17.41-14.01-17.41c-10.34,0-14.74,9.07-14.74,18.07c0,7.8,1.39,14.01,10,14.01h10.81c0,2.36-0.55,4.15-3.61,4.15
				c-4.47,0-14.55,0-14.55,0v12.79c0,0,7.68,0,12.88,0c10.2,0,12.48-6.15,12.48-16.94h12.2c6.8,0,12.67-0.67,17.81-4.8
				c4.6,4.27,9.4,4.8,17.34,4.8l5.93,0c9.15,0,12.14-4.05,12.14-15.52c0-3.13,0-14.82,0-14.82H337.08z M263.11,108.33
				c-1.59,0-2.39-1.18-2.39-2.18c0-1.87,1.68-2.69,3.19-2.69c1.82,0,6.17,0,6.65,0c3.18,0,3.5,1.03,3.5,4.87H263.11z M312.67,107.6
				c-1.93-1.47-8.14-7.8-8.14-7.8s4.34,0,7.34,0c5.8,0,7.8,0.67,7.8,2.47C319.67,104,317.47,105.87,312.67,107.6z"/>
		</g>
		<linearGradient id="SVGID_3_" gradientUnits="userSpaceOnUse" x1="63.5909" y1="74.9582" x2="390.8841" y2="81.0032">
			<stop  offset="0" style="stop-color:#F18447"/>
			<stop  offset="0.367" style="stop-color:#CE3359"/>
			<stop  offset="0.642" style="stop-color:#14438E"/>
			<stop  offset="0.9973" style="stop-color:#007ECC"/>
		</linearGradient>
		<rect x="337" y="75.26" class="st2" width="9.68" height="9.68"/>
		<g>
			<g>
				<linearGradient id="SVGID_4_" gradientUnits="userSpaceOnUse" x1="62.8385" y1="115.6946" x2="390.1317" y2="121.7396">
					<stop  offset="0" style="stop-color:#F18447"/>
					<stop  offset="0.367" style="stop-color:#CE3359"/>
					<stop  offset="0.642" style="stop-color:#14438E"/>
					<stop  offset="0.9973" style="stop-color:#007ECC"/>
				</linearGradient>
				<path class="st3" d="M89.55,92.66c0,0,0,21.58,0,26.64c0,3.88-1.33,5.64-7.13,5.64c-2.8,0-8.34,0-8.34,0v14.67
					c0,0,6.61,0,11.15,0c11.27,0,14.33-4.97,14.33-21.44c0-6,0-25.51,0-25.51H89.55z"/>
				<linearGradient id="SVGID_5_" gradientUnits="userSpaceOnUse" x1="63.074" y1="102.9473" x2="390.3671" y2="108.9923">
					<stop  offset="0" style="stop-color:#F18447"/>
					<stop  offset="0.367" style="stop-color:#CE3359"/>
					<stop  offset="0.642" style="stop-color:#14438E"/>
					<stop  offset="0.9973" style="stop-color:#007ECC"/>
				</linearGradient>
				<path class="st4" d="M188.86,123.01C188.86,123.01,188.86,123.01,188.86,123.01C188.86,123.01,188.86,123.01,188.86,123.01
					l5.83,0c10.34,0,10.44-9.49,10.44-16.4c0-3.13,0-13.95,0-13.95h-9.6c0,0,0,7.05,0,9.52c0,5.07,0.02,6.15-4.92,6.15
					c-1.33,0-4.28-0.07-5.28-0.13l-0.07-11.34c-12.74-1.33-14.43-11.75-29.75-11.75c-7.94,0-11.94,0-11.94,0v12.67
					c0,0,2.26,0,8.86,0c7.92,0,12.88,5.69,17.95,7.22c-2.13,0.6-5.32,3.35-18.86,3.35h-9.83h-0.09c-4.2,0-5.56-2.63-6-4.48
					c-0.36-1.51-0.41-6-7.18-10.82c-2.41-1.72-7.85-5.27-12.38-8l-6.12,11.87c13.91,8.51,15.53,9.21,15.54,10.46
					c0.01,1.24-1.69,1.16-6.09,1.16c-8.74,0-14.32,0-14.32,0l-0.07,14.74c0,0,3.47,0,11.34,0c7.74,0,11.27-3,12.54-7.8
					c2.6,4.87,6.07,7.54,12.74,7.54l0.1-0.02l12.47,0.02c13.52,0,17.94-7.8,21.94-9.8C176.65,119.87,179.25,123.01,188.86,123.01
					L188.86,123.01z"/>
			</g>
			<linearGradient id="SVGID_6_" gradientUnits="userSpaceOnUse" x1="63.5898" y1="75.0171" x2="390.883" y2="81.0621">
				<stop  offset="0" style="stop-color:#F18447"/>
				<stop  offset="0.367" style="stop-color:#CE3359"/>
				<stop  offset="0.642" style="stop-color:#14438E"/>
				<stop  offset="0.9973" style="stop-color:#007ECC"/>
			</linearGradient>
			<rect x="109.74" y="71.12" class="st5" width="9.68" height="9.68"/>
			<linearGradient id="SVGID_7_" gradientUnits="userSpaceOnUse" x1="62.5319" y1="132.2945" x2="389.8251" y2="138.3394">
				<stop  offset="0" style="stop-color:#F18447"/>
				<stop  offset="0.367" style="stop-color:#CE3359"/>
				<stop  offset="0.642" style="stop-color:#14438E"/>
				<stop  offset="0.9973" style="stop-color:#007ECC"/>
			</linearGradient>
			<rect x="191.92" y="129.93" class="st6" width="9.68" height="9.68"/>
		</g>
	</g>
	<linearGradient id="SVGID_8_" gradientUnits="userSpaceOnUse" x1="51.9935" y1="101.2402" x2="368.9514" y2="101.2402">
		<stop  offset="0" style="stop-color:#F18447"/>
		<stop  offset="0.367" style="stop-color:#CE3359"/>
		<stop  offset="0.642" style="stop-color:#14438E"/>
		<stop  offset="0.9973" style="stop-color:#007ECC"/>
	</linearGradient>
	<path class="st7" d="M194.03,61.04c1.05,0.34,2.09,0.67,3.13,0.96c1.05,0.28,2.09,0.55,3.14,0.76c2.1,0.4,4.2,0.65,6.25,0.58
		c2.05-0.05,4.05-0.39,5.99-0.96c1.94-0.57,3.84-1.37,5.76-2.25c3.83-1.78,7.8-3.84,12.07-5.39c1.06-0.4,2.14-0.76,3.24-1.09
		c1.09-0.33,2.19-0.64,3.31-0.91c2.22-0.55,4.48-0.93,6.74-1.24c2.26-0.3,4.53-0.49,6.8-0.59c1.13-0.05,2.27-0.08,3.4-0.09
		l3.26-0.03l88.75-0.14c0.99-0.01,2.42-0.01,3.69,0.15c1.3,0.15,2.59,0.41,3.84,0.8c5.03,1.53,9.44,4.92,12.2,9.37
		c1.39,2.22,2.38,4.69,2.91,7.26c0.26,1.29,0.4,2.59,0.43,3.9l0.01,0.49l0,0.41v0.82v1.63v26.1v26.1v6.52v3.26v0.82l-0.02,0.96
		c-0.03,0.65-0.07,1.31-0.16,1.95c-0.33,2.6-1.13,5.15-2.36,7.46c-1.23,2.32-2.87,4.41-4.82,6.15c-3.89,3.5-9.11,5.53-14.34,5.57
		l-13.1,0.01h-26.1h-52.2h-104.4h-52.2H86.2h-6.53h-3.26h-1.63l-0.82,0l-0.98-0.02c-2.61-0.12-5.21-0.71-7.63-1.74
		c-2.41-1.03-4.63-2.5-6.52-4.3c-1.89-1.8-3.47-3.94-4.62-6.3c-1.15-2.36-1.87-4.93-2.12-7.53l-0.07-0.98L52,138.53l0-1.65v-3.26
		v-6.53v-13.05v-26.1V74.89v-1.63v-0.41v-0.2L52,72.4c0.01-0.33,0.01-0.65,0.03-0.98c0.07-1.31,0.26-2.61,0.57-3.88
		c0.61-2.55,1.68-4.99,3.14-7.17c2.92-4.34,7.43-7.61,12.51-8.96c1.27-0.34,2.56-0.57,3.87-0.68c0.65-0.06,1.32-0.08,1.95-0.08h1.63
		h6.52l87.43-0.01l6.45,0.03c2.09-0.01,4.17-0.09,6.23-0.26c4.13-0.32,8.2-0.96,12.22-1.97c2.01-0.5,4-1.11,6.01-1.79
		c2-0.68,4.01-1.44,6.1-2.19c2.08-0.74,4.25-1.47,6.55-1.93c1.15-0.23,2.32-0.4,3.51-0.44c1.18-0.04,2.37,0.01,3.53,0.17
		c1.16,0.15,2.29,0.43,3.38,0.78c1.09,0.35,2.14,0.76,3.15,1.25c2.02,0.96,3.9,2.13,5.67,3.42c-2.04-0.79-4.1-1.51-6.18-2.01
		c-2.07-0.5-4.16-0.78-6.19-0.7c-2.03,0.07-3.97,0.52-5.87,1.21c-1.9,0.7-3.76,1.64-5.67,2.62c-3.8,1.99-7.85,4.08-12.16,5.6
		c-4.3,1.54-8.82,2.56-13.34,3.09c-2.26,0.26-4.53,0.43-6.79,0.51c-0.57,0.02-1.13,0.03-1.7,0.05c-0.56,0.01-1.09,0.01-1.64,0.01
		l-3.26,0.01l-87.43-0.01h-6.52h-1.63c-0.46,0.01-0.88,0.02-1.31,0.06c-0.86,0.07-1.72,0.22-2.55,0.45
		c-3.34,0.89-6.32,3.05-8.26,5.92c-0.97,1.44-1.67,3.04-2.07,4.72c-0.2,0.84-0.33,1.7-0.38,2.56c-0.01,0.22-0.01,0.43-0.02,0.65
		l0,0.16v0.2v0.41v1.63v13.05v26.1v13.05v6.53v3.26l0,1.61l0.02,0.65l0.05,0.65c0.17,1.72,0.64,3.41,1.39,4.96
		c0.75,1.56,1.8,2.97,3.06,4.17c1.26,1.19,2.72,2.17,4.31,2.85c1.59,0.68,3.3,1.06,5.03,1.15l25.93,0.02h52.2h104.4h52.2h26.1
		l13-0.01c3.47-0.03,6.88-1.36,9.47-3.68c2.59-2.31,4.33-5.55,4.74-8.98c0.06-0.43,0.09-0.86,0.11-1.29l0.02-0.67v-0.82v-3.26v-6.52
		v-26.1v-26.1v-1.63v-0.82l0-0.4l-0.01-0.33c-0.02-0.87-0.11-1.73-0.28-2.58c-0.35-1.69-1-3.32-1.92-4.79
		c-1.83-2.95-4.77-5.17-8.06-6.19c-0.82-0.26-1.67-0.43-2.53-0.53c-0.88-0.1-1.64-0.11-2.82-0.11l-88.75-0.14l-3.26-0.03
		c-1.04,0-2.09,0-3.13,0.04c-2.08,0.06-4.15,0.21-6.21,0.44c-4.11,0.49-8.14,1.32-12.15,2.44c-4.02,1.1-8.01,2.59-12.31,3.92
		c-2.15,0.65-4.39,1.23-6.72,1.52c-2.32,0.3-4.71,0.29-6.99-0.08C201.75,65.47,197.67,63.47,194.03,61.04z"/>
</g>
</svg>
